<?xml version="1.0" encoding="UTF-8" standalone="no"?>
<svg
   xmlns:dc="http://purl.org/dc/elements/1.1/"
   xmlns:cc="http://creativecommons.org/ns#"
   xmlns:rdf="http://www.w3.org/1999/02/22-rdf-syntax-ns#"
   xmlns:svg="http://www.w3.org/2000/svg"
   xmlns="http://www.w3.org/2000/svg"
   xmlns:sodipodi="http://sodipodi.sourceforge.net/DTD/sodipodi-0.dtd"
   xmlns:inkscape="http://www.inkscape.org/namespaces/inkscape"
   version="1.1"
   id="svg10"
   width="464"
   height="512"
   viewBox="0 0 463.99997 511.99998"
   sodipodi:docname="lattes.svg"
   inkscape:version="1.0.2-2 (e86c870879, 2021-01-15)">
  <metadata
     id="metadata16">
    <rdf:RDF>
      <cc:Work
         rdf:about="">
        <dc:format>image/svg+xml</dc:format>
        <dc:type
           rdf:resource="http://purl.org/dc/dcmitype/StillImage" />
        <dc:title></dc:title>
      </cc:Work>
    </rdf:RDF>
  </metadata>
  <defs
     id="defs14">
    <inkscape:path-effect
       effect="fillet_chamfer"
       id="path-effect93"
       is_visible="true"
       lpeversion="1"
       satellites_param="C,0,0,1,0,58,0,5 @ C,0,0,1,0,58,0,5 @ C,0,0,1,0,58,0,5 @ C,0,0,1,0,58,0,5"
       unit="px"
       method="auto"
       mode="F"
       radius="58"
       chamfer_steps="4"
       flexible="false"
       use_knot_distance="true"
       apply_no_radius="true"
       apply_with_radius="true"
       only_selected="false"
       hide_knots="false" />
    <clipPath
       clipPathUnits="userSpaceOnUse"
       id="clipPath63">
      <rect
         style="fill:#0000ff;fill-rule:evenodd"
         id="rect65"
         width="1020.2084"
         height="994.01569"
         x="30.121687"
         y="14.406024" />
    </clipPath>
  </defs>
  <sodipodi:namedview
     pagecolor="#ffffff"
     bordercolor="#666666"
     borderopacity="1"
     objecttolerance="10"
     gridtolerance="10"
     guidetolerance="10"
     inkscape:pageopacity="0"
     inkscape:pageshadow="2"
     inkscape:window-width="2400"
     inkscape:window-height="1271"
     id="namedview12"
     showgrid="false"
     showguides="false"
     inkscape:lockguides="true"
     inkscape:zoom="1.284549"
     inkscape:cx="177.88267"
     inkscape:cy="302.00803"
     inkscape:window-x="-9"
     inkscape:window-y="-9"
     inkscape:window-maximized="1"
     inkscape:current-layer="svg10"
     inkscape:document-rotation="0"
     units="px" />
  <g
     inkscape:groupmode="layer"
     id="layer2"
     inkscape:label="Layer 1"
     style="display:inline" />
  <g
     inkscape:groupmode="layer"
     id="layer3"
     inkscape:label="Layer 2"
     style="display:inline" />
  <path
     style="fill:#000000;stroke-width:0.452183"
     d="m 13.516954,441.48182 c -0.17875,-4.1069 -2.50771,-329.67292 0.0899,-363.998651 5.2313,-40.77247 41.56465,-43.05348 50.88533,-43.50063 10.46271,1.16914 336.157466,-0.82416 347.512566,0.20104 19.7754,-1.54419 46.4565,20.21455 48.3816,45.03419 -0.4589,6.18141 0.339,353.267031 -0.2301,358.922601 -1.9553,22.55248 -21.361,41.69618 -45.4511,42.84948 -9.138,0.5064 -348.069246,1.2229 -355.206266,0.7165 -26.19053,-2.454 -40.28591,-16.764 -45.98191,-40.22453 z m 140.062216,23.93453 c 2.84341,-0.5114 11.77159,-2.0373 19.84044,-3.391 33.29416,-5.5854 72.85021,-16.0649 101.39792,-26.86308 29.27099,-11.07177 57.80271,-25.70496 78.25059,-40.13271 14.45899,-10.20206 31.49833,-25.256 42.19663,-37.27984 14.5944,-16.40285 30.5445,-45.52634 34.9727,-63.85727 0.6511,-2.69505 1.4808,-6.03054 1.8439,-7.41223 1.9208,-7.30831 2.052,-27.22708 0.2456,-37.25127 -3.4406,-19.09205 -9.6396,-34.99616 -19.9032,-51.06364 -3.8801,-6.07427 -10.3947,-14.88969 -13.8274,-18.71087 -11.6939,-13.01765 -26.651,-27.51874 -31.21903,-30.26728 -3.17368,-1.90959 -6.83508,-2.45139 -7.78643,-1.15221 -0.74817,1.02173 -0.82276,8.19839 -0.11245,10.8226 0.26908,0.99409 2.72426,7.46888 5.45599,14.38843 7.05217,17.86359 8.97722,25.921 8.97722,37.57513 0,13.42205 -2.75061,22.40013 -10.33054,33.71939 -9.31732,13.91369 -22.28072,24.59249 -41.34706,34.06029 -22.5553,11.20034 -49.69623,18.414 -83.6172,22.22425 -9.06231,1.01795 -53.07023,1.17248 -64.25629,0.22564 -28.45199,-2.40833 -44.16952,-5.0211 -82.355716,-13.69022 -21.23981,-4.82191 -23.74577,-5.28992 -24.79902,-4.63152 -1.43546,0.89729 -1.1301,2.97078 1.29458,8.7901 1.2849,3.08372 2.79354,6.7251 3.35267,8.09197 1.46215,3.57482 18.28429,43.08558 20.96971,49.25241 1.24457,2.858 5.86238,13.73646 10.261786,24.17435 9.38502,22.26643 7.81003,18.56434 25.18248,59.19327 7.5448,17.64501 14.17154,32.53931 14.72609,33.09851 1.29998,1.3109 3.67214,1.3304 10.58603,0.087 z m 68.78309,-168.00268 c 0.99264,-0.80262 1.01563,-0.95496 0.49461,-3.27596 -0.30054,-1.33881 -1.57657,-4.77256 -2.8356,-7.63055 -15.99417,-36.30712 -20.92139,-49.50248 -26.15257,-70.03784 -5.22029,-20.49242 -6.10125,-27.11114 -6.13478,-46.08941 -0.0313,-17.84085 0.59005,-21.37473 5.61035,-31.89824 4.27308,-8.95716 8.39512,-14.22477 15.16477,-19.37916 8.47394,-6.45206 24.54361,-12.18467 42.09929,-15.0183 4.26055,-0.68769 7.97615,-0.80189 25.793,-0.79278 l 20.8154,0.0107 17.42159,2.02188 c 20.27675,2.35325 30.14539,2.69859 34.05646,1.19179 1.18502,-0.45654 2.35587,-1.20569 2.60193,-1.66475 1.11468,-2.07982 -0.0159,-5.006651 -2.76319,-7.151891 -2.53964,-1.98324 -15.07776,-7.33926 -31.73363,-13.55592 -30.82848,-11.50648 -63.89721,-19.53896 -91.30582,-22.17844 -18.48698,-1.78032 -22.05139,-1.96216 -32.58062,-1.66214 -13.06954,0.3724 -17.51588,0.78908 -27.36486,2.56441 -24.20984,4.36396 -39.70906,10.10357 -55.44428,20.53191 -17.496746,11.59578 -30.692706,26.993391 -41.423856,48.335201 -5.80519,11.54513 -10.42136,28.80985 -11.96392,44.74583 -0.58485,6.04163 -0.57589,34.09928 0.0135,42.0227 0.65476,8.80385 3.58171,25.87608 6.77856,39.53749 1.48296,6.3373 2.93832,12.29408 3.23409,13.2373 0.72356,2.30727 2.24902,3.7287 4.64927,4.33222 2.72715,0.68571 16.30768,2.92074 45.500086,7.4882 13.56395,2.12223 29.44703,4.60798 35.29567,5.52388 5.8487,0.91591 21.52812,3.43757 34.84318,5.60368 19.34573,3.14719 25.22189,3.9476 29.24984,3.98419 4.28647,0.039 5.19634,-0.0801 6.08164,-0.79596 z m 77.86096,-47.51861 c 16.65289,-1.64726 28.57258,-6.67595 37.95861,-16.01402 4.20867,-4.1872 7.19329,-9.0286 9.06255,-14.70058 1.17433,-3.56324 1.45584,-5.25237 1.65689,-9.94085 0.26793,-6.24798 -0.38008,-13.67674 -1.48513,-17.02601 -1.22443,-3.71108 -4.52207,-10.11797 -7.49364,-14.55926 -3.25119,-4.85918 -10.94853,-13.07567 -16.91276,-18.05354 -13.56598,-11.32237 -33.43297,-20.38356 -50.11495,-22.85702 -5.3722,-0.79655 -20.05735,-0.95544 -25.90652,-0.2803 -10.18875,1.17603 -22.66188,7.49887 -30.8372,15.6319 -3.12656,3.11042 -4.03619,4.38312 -5.98774,8.37787 -3.37681,6.91215 -4.22303,10.56407 -4.23262,18.26601 -0.009,7.03761 0.64469,10.94187 2.89901,17.32161 4.15547,11.75994 11.98338,22.35185 23.17137,31.35313 12.11771,9.7493 25.22974,16.32582 39.9767,20.05086 11.00775,2.78052 18.33261,3.41074 28.24543,2.4302 z"
     id="path51"
     sodipodi:nodetypes="cccccccccsssssssssssssssssssssscssssscscscsssscssscssssscscsssssssccssssssssssscssss" />
</svg>
