<?xml version="1.0" encoding="UTF-8" standalone="no"?>
<svg
   xmlns:dc="http://purl.org/dc/elements/1.1/"
   xmlns:cc="http://creativecommons.org/ns#"
   xmlns:rdf="http://www.w3.org/1999/02/22-rdf-syntax-ns#"
   xmlns:svg="http://www.w3.org/2000/svg"
   xmlns="http://www.w3.org/2000/svg"
   xmlns:sodipodi="http://sodipodi.sourceforge.net/DTD/sodipodi-0.dtd"
   xmlns:inkscape="http://www.inkscape.org/namespaces/inkscape"
   version="1.1"
   id="svg7"
   width="269.33334"
   height="58.666668"
   viewBox="0 0 269.33334 58.666668"
   sodipodi:docname="logo2.svg"
   inkscape:version="1.0.2-2 (e86c870879, 2021-01-15)">
  <metadata
     id="metadata13">
    <rdf:RDF>
      <cc:Work
         rdf:about="">
        <dc:format>image/svg+xml</dc:format>
        <dc:type
           rdf:resource="http://purl.org/dc/dcmitype/StillImage" />
        <dc:title></dc:title>
      </cc:Work>
    </rdf:RDF>
  </metadata>
  <defs
     id="defs11">
    <clipPath
       clipPathUnits="userSpaceOnUse"
       id="clipPath27">
      <rect
         style="fill:#666666"
         id="rect29"
         width="63.084"
         height="59.326645"
         x="-1.9073486e-06"
         y="0" />
    </clipPath>
  </defs>
  <sodipodi:namedview
     pagecolor="#ffffff"
     bordercolor="#666666"
     borderopacity="1"
     objecttolerance="10"
     gridtolerance="10"
     guidetolerance="10"
     inkscape:pageopacity="0"
     inkscape:pageshadow="2"
     inkscape:window-width="2400"
     inkscape:window-height="1271"
     id="namedview9"
     showgrid="false"
     inkscape:zoom="5.0567499"
     inkscape:cx="101.22595"
     inkscape:cy="13.483004"
     inkscape:window-x="-9"
     inkscape:window-y="-9"
     inkscape:window-maximized="1"
     inkscape:current-layer="g15"
     inkscape:document-rotation="0" />
  <g
     inkscape:groupmode="layer"
     inkscape:label="Image"
     id="g15">
    <rect
       style="fill:none"
       id="rect19"
       width="269.33334"
       height="58.666668"
       x="-1.9073486e-06"
       y="0"
       inkscape:export-xdpi="100"
       inkscape:export-ydpi="100" />
    <path
       style="fill:#39aae1;fill-opacity:1;stroke-width:0.197755"
       d="M 25.09009,52.311889 C 20.44303,51.323401 16.371056,49.11764 12.915779,45.717148 7.4125695,40.301194 5.1415485,34.267378 5.6414565,26.390184 c 0.31787,-5.008773 2.168734,-9.437803 5.6900735,-13.616077 3.657632,-4.3399943 8.791116,-7.3432555 14.166908,-8.2881205 2.25658,-0.3966235 6.39984,-0.4023115 8.61349,-0.011825 7.98175,1.4079759 15.14872,7.2920325 18.23083,14.9674335 1.42571,3.550461 1.6131,4.594937 1.60969,8.971948 -0.003,3.495225 -0.0556,4.149029 -0.45499,5.622861 -1.98677,7.332158 -6.48514,12.922877 -13.04741,16.215765 -1.79604,0.901237 -5.02318,1.930491 -6.82134,2.175577 -2.2073,0.300852 -6.87751,0.237483 -8.538618,-0.115857 z m 8.181138,-4.234637 0.98254,-0.210714 0.77976,-2.21179 c 0.42887,-1.216483 0.9341,-2.68334 1.12274,-3.259683 0.18864,-0.576342 0.63962,-1.421747 1.00218,-1.878677 1.86646,-2.352295 2.14954,-2.879595 2.23044,-4.1547 0.0717,-1.130897 0.0263,-1.298967 -0.59471,-2.199567 -0.36982,-0.536309 -1.09938,-1.337219 -1.62125,-1.779799 l -0.94885,-0.804691 -3.96578,-0.06124 -3.96577,-0.06124 -0.41157,-0.532022 c -1.18171,-1.527526 -2.18998,-2.420985 -2.966467,-2.628658 -2.080179,-0.556354 -2.845605,-0.834981 -3.544408,-1.290224 -0.610117,-0.397467 -0.741956,-0.592517 -0.692145,-1.024008 0.05449,-0.472009 0.253939,-0.605711 1.742453,-1.168062 0.924507,-0.349274 1.903397,-0.636872 2.175311,-0.639107 0.271913,-0.0022 0.892176,0.265446 1.378366,0.594847 0.68948,0.467126 1.05935,0.585999 1.68093,0.540228 0.70106,-0.05162 0.80434,-0.122879 0.85852,-0.592281 0.0346,-0.299552 -0.24733,-1.236202 -0.6427,-2.13545 -0.38736,-0.881017 -0.7043,-1.758871 -0.7043,-1.950784 0,-0.593058 1.01355,-1.379374 1.97647,-1.53335 1.10734,-0.17707 1.97864,-0.976972 1.97864,-1.816487 0,-0.321346 -0.13348,-0.695047 -0.29663,-0.830448 -0.48826,-0.405216 -0.34384,-0.901174 0.57627,-1.979119 1.50586,-1.764157 1.42843,-2.216238 -0.77459,-4.5221033 -1.47546,-1.5443507 -1.50937,-1.5658242 -2.33038,-1.4758049 -1.66382,0.1824272 -1.68883,0.1979985 -1.83001,1.1394999 -0.15034,1.0025273 -0.69821,1.6958843 -1.340042,1.6958843 -0.243554,0 -1.07789,-0.304347 -1.85408,-0.676326 L 21.860911,9.9550497 20.33698,10.823499 c -2.04033,1.162732 -3.33666,2.187149 -5.089962,4.022309 -1.575555,1.649116 -3.505423,4.567605 -3.505423,5.301162 0,0.91082 3.860636,6.366535 5.512652,7.790287 0.556368,0.479492 2.636028,1.773811 4.621467,2.876262 4.426994,2.458172 4.403694,2.428819 4.595664,5.789051 0.16063,2.811709 0.28357,3.228888 1.31764,4.471394 1.18116,1.419251 1.56871,2.434057 1.76411,4.619388 0.0936,1.046363 0.17328,2.058213 0.17716,2.248553 0.006,0.293097 0.20233,0.346072 1.28273,0.346072 0.70163,0 1.71782,-0.09482 2.25821,-0.210717 z m 16.36277,-17.506568 c 0.26649,-1.061757 -0.0699,-5.274829 -0.57605,-7.215957 -0.54583,-2.093029 -1.2745,-3.939058 -1.55484,-3.939058 -0.38835,0 -1.67414,0.782587 -2.16341,1.316738 -1.21561,1.327145 -2.55049,3.69855 -2.55049,4.530927 0,1.088529 2.10142,4.255089 3.23372,4.872792 0.50355,0.2747 2.65148,0.912916 3.14012,0.933028 0.20961,0.0086 0.39218,-0.184609 0.47095,-0.49847 z"
       id="path33"
       inkscape:export-xdpi="99.217949"
       inkscape:export-ydpi="99.217949" />
  </g>
</svg>
