<?xml version="1.0" encoding="UTF-8" standalone="no"?>
<svg
   xmlns:dc="http://purl.org/dc/elements/1.1/"
   xmlns:cc="http://creativecommons.org/ns#"
   xmlns:rdf="http://www.w3.org/1999/02/22-rdf-syntax-ns#"
   xmlns:svg="http://www.w3.org/2000/svg"
   xmlns="http://www.w3.org/2000/svg"
   xmlns:sodipodi="http://sodipodi.sourceforge.net/DTD/sodipodi-0.dtd"
   xmlns:inkscape="http://www.inkscape.org/namespaces/inkscape"
   version="1.1"
   id="svg7"
   width="269.33334"
   height="58.666668"
   viewBox="0 0 269.33334 58.666668"
   sodipodi:docname="logo.svg"
   inkscape:version="1.0.2-2 (e86c870879, 2021-01-15)">
  <metadata
     id="metadata13">
    <rdf:RDF>
      <cc:Work
         rdf:about="">
        <dc:format>image/svg+xml</dc:format>
        <dc:type
           rdf:resource="http://purl.org/dc/dcmitype/StillImage" />
        <dc:title />
      </cc:Work>
    </rdf:RDF>
  </metadata>
  <defs
     id="defs11" />
  <sodipodi:namedview
     pagecolor="#ffffff"
     bordercolor="#666666"
     borderopacity="1"
     objecttolerance="10"
     gridtolerance="10"
     guidetolerance="10"
     inkscape:pageopacity="0"
     inkscape:pageshadow="2"
     inkscape:window-width="2400"
     inkscape:window-height="1271"
     id="namedview9"
     showgrid="false"
     inkscape:zoom="5.0567499"
     inkscape:cx="105.18106"
     inkscape:cy="13.483004"
     inkscape:window-x="-9"
     inkscape:window-y="-9"
     inkscape:window-maximized="1"
     inkscape:current-layer="g15"
     inkscape:document-rotation="0" />
  <g
     inkscape:groupmode="layer"
     inkscape:label="Image"
     id="g15">
    <rect
       style="fill:none"
       id="rect19"
       width="269.33334"
       height="58.666668"
       x="-1.9073486e-06"
       y="0"
       inkscape:export-xdpi="100"
       inkscape:export-ydpi="100" />
    <path
       fill="currentColor"
       d="m 33.560319,2.481907 c -13.561212,0 -24.5541295,10.992921 -24.5541295,24.554125 0,13.561204 10.9929175,24.554126 24.5541295,24.554126 13.561202,0 24.554121,-10.992922 24.554121,-24.554126 0,-13.561204 -10.992919,-24.554125 -24.554121,-24.554125 z m 8.14741,35.405464 c -0.386131,0.384153 -0.791078,0.787119 -1.119784,1.116816 -0.29604,0.297026 -0.504945,0.663358 -0.610885,1.060383 -0.149503,0.560388 -0.270293,1.126717 -0.472268,1.670274 l -1.72176,4.638552 c -1.362363,0.297026 -2.772244,0.464349 -4.222713,0.464349 v -2.710853 c 0.16732,-1.249489 -0.756433,-3.590052 -2.240566,-5.07419 -0.594057,-0.594052 -0.927717,-1.39998 -0.927717,-2.240564 v -3.169264 c 0,-1.15246 -0.620781,-2.211852 -1.629672,-2.769269 C 27.33961,30.086486 25.315869,28.986501 23.929755,28.28849 22.793133,27.716221 21.74166,26.987518 20.796126,26.135054 l -0.0792,-0.07128 A 11.365392,11.365392 0 0 1 18.928837,24.01033 c -0.928705,-1.363347 -2.441552,-3.605892 -3.424706,-5.063297 2.026708,-4.504891 5.679133,-8.122665 10.217681,-10.087985 l 2.377196,1.189094 c 1.053451,0.526725 2.293038,-0.238611 2.293038,-1.416813 V 7.512532 c 0.791086,-0.127721 1.596025,-0.208909 2.414825,-0.239601 l 2.801936,2.801943 c 0.618805,0.618803 0.618805,1.62176 0,2.240564 l -0.464348,0.46336 -1.02375,1.023749 c -0.308902,0.308906 -0.308902,0.81088 0,1.119786 l 0.464358,0.46435 c 0.308903,0.308907 0.308903,0.810881 0,1.119788 l -0.792076,0.792068 a 0.79286063,0.79286063 0 0 1 -0.560382,0.23168 h -0.890094 c -0.20593,0 -0.403949,0.0802 -0.552463,0.224749 l -0.982166,0.955433 a 0.79286063,0.79286063 0 0 0 -0.156434,0.92177 l 1.543545,3.088077 c 0.263363,0.526725 -0.119801,1.146519 -0.707916,1.146519 h -0.558404 c -0.191088,0 -0.375245,-0.06931 -0.518805,-0.194055 l -0.9188,-0.798011 a 1.5858203,1.5858203 0 0 0 -1.53958,-0.306926 l -3.086101,1.028699 a 1.1831525,1.1831525 0 0 0 -0.808904,1.122757 c 0,0.44851 0.253466,0.857414 0.654448,1.058402 l 1.097014,0.548507 c 0.931671,0.466331 1.959385,0.708902 3.000953,0.708902 1.041567,0 2.236602,2.701944 3.168273,3.168274 h 6.608827 c 0.840582,0 1.645521,0.333659 2.240558,0.92771 l 1.355432,1.355428 a 3.0200584,3.0200584 0 0 1 0.884145,2.135614 4.6074628,4.6074628 0 0 1 -1.3584,3.265303 z m 8.585032,-9.044433 c -0.573255,-0.143562 -1.073254,-0.495042 -1.400973,-0.987116 l -1.780173,-2.67026 a 2.3732354,2.3732354 0 0 1 0,-2.635608 l 1.939582,-2.908872 c 0.229698,-0.34356 0.544543,-0.622764 0.914835,-0.80692 l 1.285135,-0.642566 c 1.338596,2.665311 2.110858,5.66329 2.110858,8.844436 0,0.858403 -0.07324,1.698986 -0.180193,2.528678 z"
       id="path2"
       style="fill:#ececec;stroke-width:0.0990085"
       inkscape:export-xdpi="100"
       inkscape:export-ydpi="100" />
    <text
       xml:space="preserve"
       style="font-style:normal;font-weight:normal;font-size:20.8684px;line-height:1.25;font-family:sans-serif;fill:#ececec;fill-opacity:1;stroke:none;stroke-width:0.521711;"
       x="69.420952"
       y="34.844158"
       id="text29"
       inkscape:export-xdpi="100"
       inkscape:export-ydpi="100"><tspan
         sodipodi:role="line"
         id="tspan27"
         x="69.420952"
         y="34.844158"
         style="fill:#ececec;stroke-width:0.521711;">THIAGO SILVEIRA</tspan></text>
  </g>
</svg>
