<?xml version="1.0" encoding="UTF-8" standalone="no"?>
<svg
   xmlns:dc="http://purl.org/dc/elements/1.1/"
   xmlns:cc="http://creativecommons.org/ns#"
   xmlns:rdf="http://www.w3.org/1999/02/22-rdf-syntax-ns#"
   xmlns:svg="http://www.w3.org/2000/svg"
   xmlns="http://www.w3.org/2000/svg"
   xmlns:xlink="http://www.w3.org/1999/xlink"
   xmlns:sodipodi="http://sodipodi.sourceforge.net/DTD/sodipodi-0.dtd"
   xmlns:inkscape="http://www.inkscape.org/namespaces/inkscape"
   width="464"
   height="512"
   fill="currentColor"
   class="bi bi-twitter"
   viewBox="0 0 463.99999 512.00002"
   version="1.1"
   id="svg4"
   sodipodi:docname="twitter.svg"
   inkscape:version="1.0.2-2 (e86c870879, 2021-01-15)">
  <metadata
     id="metadata10">
    <rdf:RDF>
      <cc:Work
         rdf:about="">
        <dc:format>image/svg+xml</dc:format>
        <dc:type
           rdf:resource="http://purl.org/dc/dcmitype/StillImage" />
        <dc:title></dc:title>
      </cc:Work>
    </rdf:RDF>
  </metadata>
  <defs
     id="defs8">
    <clipPath
       clipPathUnits="userSpaceOnUse"
       id="clipPath45">
      <use
         x="0"
         y="0"
         xlink:href="#g41"
         id="use47"
         transform="translate(193.66888,96.834439)"
         width="100%"
         height="100%" />
    </clipPath>
  </defs>
  <sodipodi:namedview
     pagecolor="#ffffff"
     bordercolor="#666666"
     borderopacity="1"
     objecttolerance="10"
     gridtolerance="10"
     guidetolerance="10"
     inkscape:pageopacity="0"
     inkscape:pageshadow="2"
     inkscape:window-width="2400"
     inkscape:window-height="1271"
     id="namedview6"
     showgrid="false"
     units="px"
     inkscape:zoom="1.1462864"
     inkscape:cx="377.43392"
     inkscape:cy="427.38158"
     inkscape:window-x="-9"
     inkscape:window-y="-9"
     inkscape:window-maximized="1"
     inkscape:current-layer="svg4"
     inkscape:document-rotation="0" />
  <g
     inkscape:label="Clip"
     id="g41"
     transform="translate(-193.66888,-96.834439)">
    <path
       fill="currentColor"
       d="m 603.92472,119.45293 h -352 c -26.51,0 -48,21.49 -48,48 v 352 c 0,26.51 21.49,48 48,48 h 352 c 26.51,0 48,-21.49 48,-48 v -352 c 0,-26.51 -21.49,-48 -48,-48 z"
       id="path2-8"
       sodipodi:nodetypes="sssssssss" />
    <path
       d="m 360.73059,489.26705 c 137.12294,0 212.13407,-113.61813 212.13407,-211.97511 0,-3.1794 0,-6.40422 -0.13626,-9.58362 a 151.81633,151.81633 0 0 0 37.22168,-38.65241 151.20315,151.20315 0 0 1 -42.89919,11.76378 74.965698,74.965698 0 0 0 32.86137,-41.26406 148.3644,148.3644 0 0 1 -47.39576,18.00902 74.625048,74.625048 0 0 0 -127.08513,67.99372 211.77071,211.77071 0 0 1 -153.67855,-77.87257 74.693178,74.693178 0 0 0 23.11878,99.51521 75.465319,75.465319 0 0 1 -33.74705,-9.26568 v 1.02195 a 74.670468,74.670468 0 0 0 59.7727,73.08076 72.740119,72.740119 0 0 1 -19.64414,2.61164 73.353289,73.353289 0 0 1 -13.94394,-1.29446 74.556918,74.556918 0 0 0 69.65156,51.71065 149.61345,149.61345 0 0 1 -92.65679,31.95297 143.52718,143.52718 0 0 1 -17.7138,-1.02194 212.20221,212.20221 0 0 0 114.14045,33.27015 z"
       id="path2"
       style="fill:#ffffff;stroke-width:22.71" />
  </g>
</svg>
