<?xml version="1.0" encoding="UTF-8" standalone="no"?>
<svg
   xmlns:dc="http://purl.org/dc/elements/1.1/"
   xmlns:cc="http://creativecommons.org/ns#"
   xmlns:rdf="http://www.w3.org/1999/02/22-rdf-syntax-ns#"
   xmlns:svg="http://www.w3.org/2000/svg"
   xmlns="http://www.w3.org/2000/svg"
   xmlns:sodipodi="http://sodipodi.sourceforge.net/DTD/sodipodi-0.dtd"
   xmlns:inkscape="http://www.inkscape.org/namespaces/inkscape"
   aria-hidden="true"
   focusable="false"
   data-prefix="fas"
   data-icon="briefcase"
   class="svg-inline--fa fa-briefcase fa-w-16"
   role="img"
   viewBox="0 0 512 512"
   version="1.1"
   id="svg4"
   sodipodi:docname="briefcase-solid.svg"
   inkscape:version="1.0.2-2 (e86c870879, 2021-01-15)">
  <metadata
     id="metadata10">
    <rdf:RDF>
      <cc:Work
         rdf:about="">
        <dc:format>image/svg+xml</dc:format>
        <dc:type
           rdf:resource="http://purl.org/dc/dcmitype/StillImage" />
        <dc:title></dc:title>
      </cc:Work>
    </rdf:RDF>
  </metadata>
  <defs
     id="defs8" />
  <sodipodi:namedview
     pagecolor="#ffffff"
     bordercolor="#666666"
     borderopacity="1"
     objecttolerance="10"
     gridtolerance="10"
     guidetolerance="10"
     inkscape:pageopacity="0"
     inkscape:pageshadow="2"
     inkscape:window-width="2400"
     inkscape:window-height="1271"
     id="namedview6"
     showgrid="false"
     inkscape:zoom="1.0403608"
     inkscape:cx="394.13303"
     inkscape:cy="132.66148"
     inkscape:window-x="-9"
     inkscape:window-y="-9"
     inkscape:window-maximized="1"
     inkscape:current-layer="svg4" />
  <path
     fill="currentColor"
     d="M 231.14251,502.31168 C 85.844513,291.67268 58.874513,270.05468 58.874513,192.64168 58.874513,86.602683 144.83551,0.64168468 250.87451,0.64168468 c 106.039,0 192,85.96099832 192,191.99999532 0,77.413 -26.97,99.031 -172.268,309.67 -9.535,13.774 -29.93,13.773 -39.464,0 z"
     id="path845"
     style="fill:#2b4c99;fill-opacity:1"
     inkscape:export-xdpi="100"
     inkscape:export-ydpi="100" />
  <path
     fill="currentColor"
     d="m 285.27647,219.36377 c 0,4.9068 -3.97428,8.88108 -8.88108,8.88108 h -53.28645 c -4.90679,0 -8.88107,-3.97428 -8.88107,-8.88108 V 192.72055 H 107.65496 v 79.92967 c 0,14.20972 12.43351,26.64323 26.64323,26.64323 h 230.90795 c 14.20972,0 26.64323,-12.43351 26.64323,-26.64323 V 192.72055 H 285.27647 Z M 365.20614,103.9098 H 320.80077 V 77.266573 c 0,-14.20972 -12.43351,-26.64322 -26.64323,-26.64322 h -88.81075 c -14.20972,0 -26.64322,12.4335 -26.64322,26.64322 V 103.9098 h -44.40538 c -14.20972,0 -26.64323,12.4335 -26.64323,26.64322 v 44.40538 h 284.19441 v -44.40538 c 0,-14.20972 -12.43351,-26.64322 -26.64323,-26.64322 z m -79.92967,0 h -71.0486 V 86.147653 h 71.0486 z"
     id="path2"
     style="fill:#ffffff;fill-opacity:1;stroke-width:0.555067"
     inkscape:export-xdpi="100"
     inkscape:export-ydpi="100" />
</svg>
