<?xml version="1.0" encoding="UTF-8" standalone="no"?>
<svg
   aria-hidden="true"
   focusable="false"
   data-prefix="fab"
   data-icon="researchgate"
   class="svg-inline--fa fa-researchgate fa-w-14"
   role="img"
   viewBox="0 0 464 512"
   version="1.1"
   id="svg4"
   sodipodi:docname="cv.svg"
   width="464"
   height="512"
   inkscape:version="1.1.2 (b8e25be833, 2022-02-05)"
   xmlns:inkscape="http://www.inkscape.org/namespaces/inkscape"
   xmlns:sodipodi="http://sodipodi.sourceforge.net/DTD/sodipodi-0.dtd"
   xmlns="http://www.w3.org/2000/svg"
   xmlns:svg="http://www.w3.org/2000/svg"
   xmlns:rdf="http://www.w3.org/1999/02/22-rdf-syntax-ns#"
   xmlns:cc="http://creativecommons.org/ns#"
   xmlns:dc="http://purl.org/dc/elements/1.1/">
  <metadata
     id="metadata10">
    <rdf:RDF>
      <cc:Work
         rdf:about="">
        <dc:format>image/svg+xml</dc:format>
        <dc:type
           rdf:resource="http://purl.org/dc/dcmitype/StillImage" />
      </cc:Work>
    </rdf:RDF>
  </metadata>
  <defs
     id="defs8" />
  <sodipodi:namedview
     pagecolor="#ffffff"
     bordercolor="#666666"
     borderopacity="1"
     objecttolerance="10"
     gridtolerance="10"
     guidetolerance="10"
     inkscape:pageopacity="0"
     inkscape:pageshadow="2"
     inkscape:window-width="3200"
     inkscape:window-height="1261"
     id="namedview6"
     showgrid="false"
     inkscape:zoom="1.1201227"
     inkscape:cx="392.36773"
     inkscape:cy="278.09453"
     inkscape:window-x="2391"
     inkscape:window-y="-9"
     inkscape:window-maximized="1"
     inkscape:current-layer="svg4"
     inkscape:document-rotation="0"
     inkscape:pagecheckerboard="0" />
  <path
     fill="currentColor"
     d="m 12.070935,65.911743 c 0,0 -1.560258,359.210737 -1.456241,368.874197 4.330517,33.2816 33.38517,43.77049 45.763218,44.08222 l 356.986998,-0.13721 c 25.40465,-2.3057 41.64791,-22.08234 44.9555,-42.7636 0.25385,-1.58718 -0.27073,-291.22216 0.2893,-361.714667 C 456.28711,54.490742 442.93968,36.658837 420.07055,32.166174 404.74383,29.862252 186.82427,31.327292 53.049322,31.32728 46.086586,31.230763 20.912398,37.579503 12.070935,65.911743 Z"
     id="path2"
     sodipodi:nodetypes="ccccscccc"
     style="stroke-width:0.999183" />
  <path
     fill="currentColor"
     d="M 353.02017,147.18237 298.02889,89.068905 c -5.89894,-6.23386 -13.89528,-9.766382 -22.21935,-9.766382 H 142.0346 c -17.36912,0.06927 -31.46102,14.961272 -31.46102,33.316537 v 288.14302 c 0,18.35527 14.0919,33.24728 31.46102,33.24728 h 188.7662 c 17.36912,0 31.46104,-14.89201 31.46104,-33.24728 V 170.73252 c 0,-8.79667 -3.34273,-17.31629 -9.24167,-23.55015 z m -24.77557,20.84881 h -49.87884 v -52.71077 z m -186.21,232.7309 V 112.61906 h 104.87012 v 72.03576 c 0,9.21226 7.01319,16.62363 15.73051,16.62363 h 68.16557 v 199.48363 z"
     id="path2-1"
     style="fill:#ffffff;stroke-width:0.673789" />
  <text
     xml:space="preserve"
     style="font-style:normal;font-variant:normal;font-weight:normal;font-stretch:normal;font-size:137.225px;line-height:1.25;font-family:'Arial Rounded MT Bold';-inkscape-font-specification:'Arial Rounded MT Bold, ';stroke-width:3.43062"
     x="149.86661"
     y="337.04312"
     id="text841"
     transform="scale(1.01982,0.98056519)"><tspan
       sodipodi:role="line"
       id="tspan839"
       x="149.86661"
       y="337.04312"
       style="font-style:normal;font-variant:normal;font-weight:bold;font-stretch:normal;font-family:Arial;-inkscape-font-specification:'Arial Bold';fill:#ffffff;stroke-width:3.43062">cv</tspan></text>
</svg>
