<?xml version="1.0" encoding="UTF-8" standalone="no"?>
<svg
   xmlns:dc="http://purl.org/dc/elements/1.1/"
   xmlns:cc="http://creativecommons.org/ns#"
   xmlns:rdf="http://www.w3.org/1999/02/22-rdf-syntax-ns#"
   xmlns:svg="http://www.w3.org/2000/svg"
   xmlns="http://www.w3.org/2000/svg"
   xmlns:sodipodi="http://sodipodi.sourceforge.net/DTD/sodipodi-0.dtd"
   xmlns:inkscape="http://www.inkscape.org/namespaces/inkscape"
   aria-hidden="true"
   focusable="false"
   data-prefix="fab"
   data-icon="researchgate"
   class="svg-inline--fa fa-researchgate fa-w-14"
   role="img"
   viewBox="0 0 464 512"
   version="1.1"
   id="svg4"
   sodipodi:docname="cv.svg"
   width="464"
   height="512"
   inkscape:version="1.0.2-2 (e86c870879, 2021-01-15)">
  <metadata
     id="metadata10">
    <rdf:RDF>
      <cc:Work
         rdf:about="">
        <dc:format>image/svg+xml</dc:format>
        <dc:type
           rdf:resource="http://purl.org/dc/dcmitype/StillImage" />
        <dc:title></dc:title>
      </cc:Work>
    </rdf:RDF>
  </metadata>
  <defs
     id="defs8" />
  <sodipodi:namedview
     pagecolor="#ffffff"
     bordercolor="#666666"
     borderopacity="1"
     objecttolerance="10"
     gridtolerance="10"
     guidetolerance="10"
     inkscape:pageopacity="0"
     inkscape:pageshadow="2"
     inkscape:window-width="1920"
     inkscape:window-height="991"
     id="namedview6"
     showgrid="false"
     inkscape:zoom="1.1601764"
     inkscape:cx="392.03189"
     inkscape:cy="277.69808"
     inkscape:window-x="2391"
     inkscape:window-y="-9"
     inkscape:window-maximized="1"
     inkscape:current-layer="svg4"
     inkscape:document-rotation="0" />
  <path
     fill="currentColor"
     d="m 12.070935,65.911743 c 0,0 -1.560258,359.210737 -1.456241,368.874197 4.330517,33.2816 33.38517,43.77049 45.763218,44.08222 l 356.986998,-0.13721 c 25.40465,-2.3057 41.64791,-22.08234 44.9555,-42.7636 0.25385,-1.58718 -0.27073,-291.22216 0.2893,-361.714667 C 456.28711,54.490742 442.93968,36.658837 420.07055,32.166174 404.74383,29.862252 186.82427,31.327292 53.049322,31.32728 46.086586,31.230763 20.912398,37.579503 12.070935,65.911743 Z"
     id="path2"
     sodipodi:nodetypes="ccccscccc"
     style="stroke-width:0.999183" />
  <path
     fill="currentColor"
     d="M 373.73288,135.05891 309.18373,70.509765 C 302.25951,63.585543 292.87335,59.661817 283.1025,59.661817 H 126.07652 C 105.68853,59.738757 89.14735,76.279951 89.14735,96.667938 V 416.72088 c 0,20.38799 16.54118,36.92919 36.92917,36.92919 h 221.57511 c 20.38799,0 36.92919,-16.5412 36.92919,-36.92919 v -255.5038 c 0,-9.77084 -3.92372,-19.23395 -10.84794,-26.15817 z m -29.08174,23.15768 H 286.103 V 99.668444 Z M 126.07652,416.72088 V 96.667938 h 123.09729 v 80.013242 c 0,10.23246 8.23213,18.46459 18.46459,18.46459 h 80.01323 v 221.57511 z"
     id="path2-1"
     style="fill:#ffffff;stroke-width:0.769359" />
  <text
     xml:space="preserve"
     style="font-style:normal;font-variant:normal;font-weight:normal;font-stretch:normal;font-size:162.304px;line-height:1.25;font-family:'Arial Rounded MT Bold';-inkscape-font-specification:'Arial Rounded MT Bold, ';stroke-width:4.05759"
     x="141.27422"
     y="332.97681"
     id="text841"><tspan
       sodipodi:role="line"
       id="tspan839"
       x="141.27422"
       y="332.97681"
       style="font-style:normal;font-variant:normal;font-weight:normal;font-stretch:normal;font-family:'Arial Rounded MT Bold';-inkscape-font-specification:'Arial Rounded MT Bold, ';fill:#ffffff;stroke-width:4.05759">cv</tspan></text>
</svg>
