<?xml version="1.0" encoding="UTF-8" standalone="no"?>
<svg
   xmlns:dc="http://purl.org/dc/elements/1.1/"
   xmlns:cc="http://creativecommons.org/ns#"
   xmlns:rdf="http://www.w3.org/1999/02/22-rdf-syntax-ns#"
   xmlns:svg="http://www.w3.org/2000/svg"
   xmlns="http://www.w3.org/2000/svg"
   xmlns:sodipodi="http://sodipodi.sourceforge.net/DTD/sodipodi-0.dtd"
   xmlns:inkscape="http://www.inkscape.org/namespaces/inkscape"
   aria-hidden="true"
   focusable="false"
   data-prefix="fab"
   data-icon="github-square"
   class="svg-inline--fa fa-github-square fa-w-14"
   role="img"
   viewBox="0 0 464 512"
   version="1.1"
   id="svg4"
   sodipodi:docname="github.svg"
   inkscape:version="1.0.2-2 (e86c870879, 2021-01-15)"
   width="464"
   height="512">
  <metadata
     id="metadata10">
    <rdf:RDF>
      <cc:Work
         rdf:about="">
        <dc:format>image/svg+xml</dc:format>
        <dc:type
           rdf:resource="http://purl.org/dc/dcmitype/StillImage" />
        <dc:title></dc:title>
      </cc:Work>
    </rdf:RDF>
  </metadata>
  <defs
     id="defs8" />
  <sodipodi:namedview
     pagecolor="#ffffff"
     bordercolor="#666666"
     borderopacity="1"
     objecttolerance="10"
     gridtolerance="10"
     guidetolerance="10"
     inkscape:pageopacity="0"
     inkscape:pageshadow="2"
     inkscape:window-width="2400"
     inkscape:window-height="1271"
     id="namedview6"
     showgrid="false"
     inkscape:zoom="1.6210938"
     inkscape:cx="224"
     inkscape:cy="256"
     inkscape:window-x="-9"
     inkscape:window-y="-9"
     inkscape:window-maximized="1"
     inkscape:current-layer="svg4"
     inkscape:document-rotation="0" />
  <path
     fill="currentColor"
     d="M 409.25301,30.766265 H 57.253012 c -26.5,0 -48.0000002,21.5 -48.0000002,48 V 430.76627 c 0,26.5 21.5000002,48 48.0000002,48 H 409.25301 c 26.5,0 48,-21.5 48,-48 V 78.766265 c 0,-26.5 -21.5,-48 -48,-48 z m -122.7,383.700005 c -8.4,1.5 -11.5,-3.7 -11.5,-8 0,-5.4 0.2,-33 0.2,-55.3 0,-15.6 -5.2,-25.5 -11.3,-30.7 37,-4.1 76,-9.2 76,-73.1 0,-18.2 -6.5,-27.3 -17.1,-39 1.7,-4.3 7.4,-22 -1.7,-45 -13.9,-4.3 -45.7,17.9 -45.7,17.9 -13.2,-3.7 -27.5,-5.6 -41.6,-5.6 -14.1,0 -28.4,1.9 -41.6,5.6 0,0 -31.8,-22.2 -45.7,-17.9 -9.1,22.9 -3.5,40.6 -1.7,45 -10.6,11.7 -15.6,20.8 -15.6,39 0,63.6 37.3,69 74.3,73.1 -4.8,4.3 -9.1,11.7 -10.6,22.3 -9.5,4.3 -33.8,11.7 -48.3,-13.9 -9.1,-15.8 -25.5,-17.1 -25.5,-17.1 -16.2,-0.2 -1.1,10.2 -1.1,10.2 10.8,5 18.4,24.2 18.4,24.2 9.7,29.7 56.1,19.7 56.1,19.7 0,13.9 0.2,36.5 0.2,40.6 0,4.3 -3,9.5 -11.5,8 -66,-22.1 -112.199998,-84.9 -112.199998,-158.3 0,-91.8 70.199998,-161.500005 161.999998,-161.500005 91.8,0 166.2,69.700005 166.2,161.500005 0.1,73.4 -44.7,136.3 -110.7,158.3 z m -98.1,-61.1 c -1.9,0.4 -3.7,-0.4 -3.9,-1.7 -0.2,-1.5 1.1,-2.8 3,-3.2 1.9,-0.2 3.7,0.6 3.9,1.9 0.3,1.3 -1,2.6 -3,3 z m -9.5,-0.9 c 0,1.3 -1.5,2.4 -3.5,2.4 -2.2,0.2 -3.7,-0.9 -3.7,-2.4 0,-1.3 1.5,-2.4 3.5,-2.4 1.9,-0.2 3.7,0.9 3.7,2.4 z m -13.7,-1.1 c -0.4,1.3 -2.4,1.9 -4.1,1.3 -1.9,-0.4 -3.2,-1.9 -2.8,-3.2 0.4,-1.3 2.4,-1.9 4.1,-1.5 2,0.6 3.3,2.1 2.8,3.4 z m -12.3,-5.4 c -0.9,1.1 -2.8,0.9 -4.3,-0.6 -1.5,-1.3 -1.9,-3.2 -0.9,-4.1 0.9,-1.1 2.8,-0.9 4.3,0.6 1.3,1.3 1.8,3.3 0.9,4.1 z m -9.1,-9.1 c -0.9,0.6 -2.6,0 -3.7,-1.5 -1.1,-1.5 -1.1,-3.2 0,-3.9 1.1,-0.9 2.8,-0.2 3.7,1.3 1.1,1.5 1.1,3.3 0,4.1 z m -6.5,-9.7 c -0.9,0.9 -2.4,0.4 -3.5,-0.6 -1.1,-1.3 -1.3,-2.8 -0.4,-3.5 0.9,-0.9 2.4,-0.4 3.5,0.6 1.1,1.3 1.3,2.8 0.4,3.5 z m -6.7,-7.4 c -0.4,0.9 -1.7,1.1 -2.8,0.4 -1.3,-0.6 -1.9,-1.7 -1.5,-2.6 0.4,-0.6 1.5,-0.9 2.8,-0.4 1.3,0.7 1.9,1.8 1.5,2.6 z"
     id="path2" />
</svg>
