<?xml version="1.0" encoding="UTF-8" standalone="no"?>
<svg
   xmlns:dc="http://purl.org/dc/elements/1.1/"
   xmlns:cc="http://creativecommons.org/ns#"
   xmlns:rdf="http://www.w3.org/1999/02/22-rdf-syntax-ns#"
   xmlns:svg="http://www.w3.org/2000/svg"
   xmlns="http://www.w3.org/2000/svg"
   xmlns:sodipodi="http://sodipodi.sourceforge.net/DTD/sodipodi-0.dtd"
   xmlns:inkscape="http://www.inkscape.org/namespaces/inkscape"
   aria-hidden="true"
   focusable="false"
   data-prefix="fas"
   data-icon="map-marker"
   class="svg-inline--fa fa-map-marker fa-w-12"
   role="img"
   viewBox="0 0 384 512"
   version="1.1"
   id="svg1449"
   sodipodi:docname="marker_r&amp;d.svg"
   inkscape:version="1.0.2-2 (e86c870879, 2021-01-15)"
   inkscape:export-filename="C:\Users\silve\OneDrive\Documentos\Academico\Site\site\novo_site\assets\images\marker-r&amp;d.png"
   inkscape:export-xdpi="100"
   inkscape:export-ydpi="100">
  <metadata
     id="metadata1455">
    <rdf:RDF>
      <cc:Work
         rdf:about="">
        <dc:format>image/svg+xml</dc:format>
        <dc:type
           rdf:resource="http://purl.org/dc/dcmitype/StillImage" />
        <dc:title></dc:title>
      </cc:Work>
    </rdf:RDF>
  </metadata>
  <defs
     id="defs1453">
    <marker
       style="overflow:visible"
       id="Arrow1Lstart"
       refX="0.0"
       refY="0.0"
       orient="auto"
       inkscape:stockid="Arrow1Lstart"
       inkscape:isstock="true">
      <path
         transform="scale(0.8) translate(12.5,0)"
         style="fill-rule:evenodd;stroke:none;stroke-width:1pt;stroke-opacity:1;fill:#ffffff;fill-opacity:1"
         d="M 0.0,0.0 L 5.0,-5.0 L -12.5,0.0 L 5.0,5.0 L 0.0,0.0 z "
         id="path2094" />
    </marker>
  </defs>
  <sodipodi:namedview
     pagecolor="#ffffff"
     bordercolor="#666666"
     borderopacity="1"
     objecttolerance="10"
     gridtolerance="10"
     guidetolerance="10"
     inkscape:pageopacity="0"
     inkscape:pageshadow="2"
     inkscape:window-width="1920"
     inkscape:window-height="1001"
     id="namedview1451"
     showgrid="false"
     inkscape:zoom="0.87138238"
     inkscape:cx="242.86355"
     inkscape:cy="118.63249"
     inkscape:window-x="2391"
     inkscape:window-y="-9"
     inkscape:window-maximized="1"
     inkscape:current-layer="svg1449"
     showguides="true"
     inkscape:guide-bbox="true" />
  <path
     fill="currentColor"
     d="M 172.268,501.67 C 26.97,291.031 0,269.413 0,192 0,85.961 85.961,0 192,0 c 106.039,0 192,85.961 192,192 0,77.413 -26.97,99.031 -172.268,309.67 -9.535,13.774 -29.93,13.773 -39.464,0 z"
     id="path1447"
     style="fill:#2b4c99;fill-opacity:1"
     inkscape:export-xdpi="100"
     inkscape:export-ydpi="100" />
  <path
     fill="currentColor"
     d="m 139.38571,369.71343 c 0,2.06189 0.60875,4.0714 1.75425,5.78637 l 16.04342,24.11423 c 1.94406,2.91938 5.2169,4.67361 8.71884,4.67361 h 51.61258 c 3.50847,0 6.7813,-1.75423 8.71882,-4.67361 l 16.04344,-24.11423 c 1.13893,-1.71497 1.74768,-3.73103 1.75423,-5.78637 l 0.0327,-28.26419 H 139.35952 Z M 191.71177,69.156032 c -66.94907,0 -115.203733,54.309408 -115.203733,115.203748 0,29.04312 10.767615,55.53999 28.512933,75.78573 10.89198,12.43021 27.97617,38.48852 34.31239,60.32487 v 0.0392 h 31.41918 v -0.0786 c -0.007,-3.12228 -0.47128,-6.22493 -1.40731,-9.20975 -3.65903,-11.65784 -14.93722,-42.39629 -40.69442,-71.78633 -13.4448,-15.33649 -20.63193,-34.79021 -20.69084,-55.07524 -0.13091,-48.20231 39.058,-83.78454 83.7518,-83.78454 46.19932,0 83.78455,37.58522 83.78455,83.78454 0,20.27193 -7.35734,39.83039 -20.71704,55.07524 -25.6001,29.20023 -36.93065,59.87322 -40.64859,71.64887 -0.95955,3.02759 -1.44961,6.1843 -1.45315,9.3603 v 0.0655 h 31.41921 v -0.0327 c 6.3362,-21.84288 23.42039,-47.90118 34.31237,-60.32485 17.73877,-20.2523 28.50638,-46.74915 28.50638,-75.79228 0,-63.62389 -51.57985,-115.20375 -115.20373,-115.20375 z"
     id="path2055"
     style="fill:#ffffff;stroke-width:30;stroke-miterlimit:4;stroke-dasharray:none;marker-start:"
     sodipodi:nodetypes="cccsscccccccsccccccccssccsccccscc"
     inkscape:export-xdpi="100"
     inkscape:export-ydpi="100" />
  <rect
     style="opacity:0.89;fill:#ffffff;fill-opacity:1;stroke:#82c91e;stroke-width:0;stroke-dashoffset:13.7953"
     id="rect2072"
     width="44.88512"
     height="25.473658"
     x="64.534035"
     y="136.34427"
     ry="5.5141597"
     transform="matrix(0.98531499,0.17074652,-0.247815,0.96880737,0,0)"
     inkscape:export-xdpi="100"
     inkscape:export-ydpi="100" />
  <rect
     style="opacity:0.89;fill:#ffffff;fill-opacity:1;stroke:#82c91e;stroke-width:0;stroke-dashoffset:13.7953"
     id="rect2074"
     width="44.88512"
     height="25.473658"
     x="285.02719"
     y="219.71483"
     ry="5.5141597"
     transform="matrix(0.97341436,-0.22905125,0.15167823,0.98842992,0,0)"
     inkscape:export-xdpi="100"
     inkscape:export-ydpi="100" />
  <rect
     style="opacity:0.89;fill:#ffffff;fill-opacity:1;stroke:#82c91e;stroke-width:0;stroke-dashoffset:13.7953"
     id="rect2076"
     width="44.88512"
     height="25.473658"
     x="159.61598"
     y="245.09811"
     ry="5.5141597"
     transform="matrix(0.73296998,-0.68026098,0.62042277,0.78426755,0,0)"
     inkscape:transform-center-x="-38.902015"
     inkscape:transform-center-y="41.094114"
     inkscape:export-xdpi="100"
     inkscape:export-ydpi="100" />
  <rect
     style="opacity:0.89;fill:#ffffff;fill-opacity:1;stroke:#82c91e;stroke-width:0;stroke-dashoffset:13.7953"
     id="rect2078"
     width="44.88512"
     height="25.473658"
     x="94.734291"
     y="-14.469961"
     ry="5.5141597"
     transform="matrix(0.72237088,0.69150583,-0.74624857,0.66566739,0,0)"
     inkscape:transform-center-x="38.724343"
     inkscape:transform-center-y="41.261583"
     inkscape:export-xdpi="100"
     inkscape:export-ydpi="100" />
  <rect
     style="opacity:0.89;fill:#ffffff;fill-opacity:1;stroke:#82c91e;stroke-width:0;stroke-dashoffset:13.7953"
     id="rect2080"
     width="27.475916"
     height="46.569351"
     x="176.96353"
     y="12.299273"
     ry="5.5141602"
     inkscape:export-xdpi="100"
     inkscape:export-ydpi="100" />
  <path
     style="fill:none;stroke:#fafafa;stroke-width:15;stroke-linecap:round;stroke-linejoin:round;stroke-miterlimit:4;stroke-dasharray:none;stroke-opacity:1"
     d="m 179.31888,292.21777 -54.18677,-118.35 47.48355,39.86738 15.28462,-40.89766 21.80545,38.43287 42.07087,-36.94611 -48.25254,118.18042"
     id="path2092"
     sodipodi:nodetypes="ccccccc"
     inkscape:export-xdpi="100"
     inkscape:export-ydpi="100" />
</svg>
