<?xml version="1.0" encoding="UTF-8" standalone="no"?>
<svg
   xmlns:dc="http://purl.org/dc/elements/1.1/"
   xmlns:cc="http://creativecommons.org/ns#"
   xmlns:rdf="http://www.w3.org/1999/02/22-rdf-syntax-ns#"
   xmlns:svg="http://www.w3.org/2000/svg"
   xmlns="http://www.w3.org/2000/svg"
   xmlns:sodipodi="http://sodipodi.sourceforge.net/DTD/sodipodi-0.dtd"
   xmlns:inkscape="http://www.inkscape.org/namespaces/inkscape"
   aria-hidden="true"
   focusable="false"
   data-prefix="fab"
   data-icon="orcid"
   class="svg-inline--fa fa-orcid fa-w-16"
   role="img"
   viewBox="0 0 464 512"
   version="1.1"
   id="svg4"
   sodipodi:docname="orcid.svg"
   inkscape:version="1.0.2-2 (e86c870879, 2021-01-15)"
   width="464"
   height="512">
  <metadata
     id="metadata10">
    <rdf:RDF>
      <cc:Work
         rdf:about="">
        <dc:format>image/svg+xml</dc:format>
        <dc:type
           rdf:resource="http://purl.org/dc/dcmitype/StillImage" />
        <dc:title></dc:title>
      </cc:Work>
    </rdf:RDF>
  </metadata>
  <defs
     id="defs8">
    <clipPath
       clipPathUnits="userSpaceOnUse"
       id="clipPath45">
      <g
         inkscape:label="Clip"
         id="use47"
         style="fill:#ff0000">
        <path
           fill="currentColor"
           d="m 603.92472,119.45293 h -352 c -26.51,0 -48,21.49 -48,48 v 352 c 0,26.51 21.49,48 48,48 h 352 c 26.51,0 48,-21.49 48,-48 v -352 c 0,-26.51 -21.49,-48 -48,-48 z"
           id="path32"
           sodipodi:nodetypes="sssssssss"
           style="fill:#ff0000" />
        <path
           d="m 360.73059,489.26705 c 137.12294,0 212.13407,-113.61813 212.13407,-211.97511 0,-3.1794 0,-6.40422 -0.13626,-9.58362 a 151.81633,151.81633 0 0 0 37.22168,-38.65241 151.20315,151.20315 0 0 1 -42.89919,11.76378 74.965698,74.965698 0 0 0 32.86137,-41.26406 148.3644,148.3644 0 0 1 -47.39576,18.00902 74.625048,74.625048 0 0 0 -127.08513,67.99372 211.77071,211.77071 0 0 1 -153.67855,-77.87257 74.693178,74.693178 0 0 0 23.11878,99.51521 75.465319,75.465319 0 0 1 -33.74705,-9.26568 v 1.02195 a 74.670468,74.670468 0 0 0 59.7727,73.08076 72.740119,72.740119 0 0 1 -19.64414,2.61164 73.353289,73.353289 0 0 1 -13.94394,-1.29446 74.556918,74.556918 0 0 0 69.65156,51.71065 149.61345,149.61345 0 0 1 -92.65679,31.95297 143.52718,143.52718 0 0 1 -17.7138,-1.02194 212.20221,212.20221 0 0 0 114.14045,33.27015 z"
           id="path34"
           style="fill:#ff0000;stroke-width:22.71" />
      </g>
    </clipPath>
  </defs>
  <sodipodi:namedview
     pagecolor="#ffffff"
     bordercolor="#666666"
     borderopacity="1"
     objecttolerance="10"
     gridtolerance="10"
     guidetolerance="10"
     inkscape:pageopacity="0"
     inkscape:pageshadow="2"
     inkscape:window-width="2400"
     inkscape:window-height="1271"
     id="namedview6"
     showgrid="false"
     inkscape:zoom="1.118115"
     inkscape:cx="362.41994"
     inkscape:cy="363.08211"
     inkscape:window-x="-9"
     inkscape:window-y="-9"
     inkscape:window-maximized="1"
     inkscape:current-layer="svg4"
     inkscape:document-rotation="0" />
  <path
     fill="currentColor"
     d="m 266.76527,190.3151 h -40.37974 v 138.19519 h 41.74273 c 59.46164,0 73.09156,-46.12796 73.09156,-69.10209 0,-37.4127 -23.33794,-69.0931 -74.45455,-69.0931 z M 90.460678,27.069924 C 64.101973,27.937407 10.405082,17.987589 10.653551,100.25509 L 11.62744,422.7048 c 0.116382,38.53443 30.804231,52.94957 48.042399,51.5284 0,0 297.126581,1.42128 341.092651,0.55909 47.40106,-0.92956 57.4904,-27.06744 57.36973,-64.97739 l -0.50219,-157.76502 c 0,0 0.3495,-117.49176 1.01871,-168.888884 C 458.83825,68.606296 452.363,28.995821 407.28145,28.042694 383.98684,27.550193 90.460678,27.069924 90.460678,27.069924 Z M 161.64779,352.55361 h -26.2398 V 166.11904 h 26.2398 z m -13.1199,-207.67464 c -15.33253,0 -23.00832,-18.93959 -12.16789,-30.01585 10.84043,-11.07626 29.37677,-3.23349 29.37677,12.4326 -0.0338,9.69664 -7.7187,17.54875 -17.20888,17.58325 z M 271.38186,352.76925 H 200.15452 V 166.11904 h 70.8756 c 67.47251,0 97.1154,49.26365 97.1154,93.30713 -0.0352,47.87101 -36.63372,93.34308 -96.76366,93.34308 z"
     id="path2"
     sodipodi:nodetypes="sccssssssssscsssccccccsccsccscs"
     style="stroke-width:0.888864" />
</svg>
