<?xml version="1.0" encoding="UTF-8" standalone="no"?>
<svg
   xmlns:dc="http://purl.org/dc/elements/1.1/"
   xmlns:cc="http://creativecommons.org/ns#"
   xmlns:rdf="http://www.w3.org/1999/02/22-rdf-syntax-ns#"
   xmlns:svg="http://www.w3.org/2000/svg"
   xmlns="http://www.w3.org/2000/svg"
   xmlns:sodipodi="http://sodipodi.sourceforge.net/DTD/sodipodi-0.dtd"
   xmlns:inkscape="http://www.inkscape.org/namespaces/inkscape"
   aria-hidden="true"
   focusable="false"
   data-prefix="fab"
   data-icon="researchgate"
   class="svg-inline--fa fa-researchgate fa-w-14"
   role="img"
   viewBox="0 0 464 512"
   version="1.1"
   id="svg4"
   sodipodi:docname="researchgate.svg"
   width="464"
   height="512"
   inkscape:version="1.0.2-2 (e86c870879, 2021-01-15)">
  <metadata
     id="metadata10">
    <rdf:RDF>
      <cc:Work
         rdf:about="">
        <dc:format>image/svg+xml</dc:format>
        <dc:type
           rdf:resource="http://purl.org/dc/dcmitype/StillImage" />
        <dc:title></dc:title>
      </cc:Work>
    </rdf:RDF>
  </metadata>
  <defs
     id="defs8" />
  <sodipodi:namedview
     pagecolor="#ffffff"
     bordercolor="#666666"
     borderopacity="1"
     objecttolerance="10"
     gridtolerance="10"
     guidetolerance="10"
     inkscape:pageopacity="0"
     inkscape:pageshadow="2"
     inkscape:window-width="2400"
     inkscape:window-height="1271"
     id="namedview6"
     showgrid="false"
     inkscape:zoom="1.2016624"
     inkscape:cx="392.03189"
     inkscape:cy="277.69808"
     inkscape:window-x="-9"
     inkscape:window-y="-9"
     inkscape:window-maximized="1"
     inkscape:current-layer="svg4"
     inkscape:document-rotation="0" />
  <path
     fill="currentColor"
     d="m 12.070935,65.911743 c 0,0 -1.560258,359.210737 -1.456241,368.874197 4.330517,33.2816 33.38517,43.77049 45.763218,44.08222 l 356.986998,-0.13721 c 25.40465,-2.3057 41.64791,-22.08234 44.9555,-42.7636 0.25385,-1.58718 -0.27073,-291.22216 0.2893,-361.714667 C 456.28711,54.490742 442.93968,36.658837 420.07055,32.166174 404.74383,29.862252 186.82427,31.327292 53.049322,31.32728 46.086586,31.230763 20.912398,37.579503 12.070935,65.911743 Z M 274.1304,365.87926 c -6.59647,2.99671 -33.18221,5.99341 -49.9732,-14.18439 -9.19507,-10.58835 -25.28644,-33.2634 -42.17738,-63.53009 -8.89523,0 -14.69213,0 -21.38854,-0.59935 v 46.349 c 0,23.47417 5.99679,21.1767 25.78618,23.87373 v 8.0911 c -6.8963,-0.29967 -23.08762,-0.79911 -35.58093,-0.79911 -13.09297,0 -26.086,0.59933 -33.58199,0.79911 v -8.0911 c 15.49169,-2.89681 21.98821,-1.29856 21.98821,-23.87373 V 224.63468 c 0,-22.57516 -6.39657,-20.97692 -21.98821,-23.87373 v -8.0911 c 25.78617,0.9989 53.07155,-0.59934 70.862,-0.59934 31.68301,0 55.87005,14.38417 55.87005,45.54988 0,21.07681 -16.69105,42.15362 -39.179,47.44779 13.59271,24.1734 29.98393,45.54988 42.17739,58.83527 7.19614,7.79142 17.19078,14.68384 27.18542,14.68384 z m 22.88772,-134.85162 c -23.28751,0 -32.18274,-15.68274 -32.18274,-32.1646 v -32.16461 c 0,-12.18659 8.79529,-30.36658 33.98178,-30.36658 25.18649,0 30.38371,17.88032 30.38371,17.88032 l -10.69426,7.19208 c 0,0 -5.49706,-12.48625 -19.68945,-12.48625 -7.89576,0 -19.68944,7.29197 -19.68944,19.67834 v 26.77054 c 0,13.38527 6.59647,23.27439 17.8904,23.27439 14.09245,0 21.48849,-10.88802 21.48849,-26.77054 H 300.6162 v -10.68824 h 30.3837 c 0,20.47747 4.69748,49.84515 -33.98178,49.84515 z m -116.43755,44.65087 c -9.39497,0 -13.59272,-0.29966 -19.98929,-0.79912 V 205.256 c 6.39657,-0.59934 14.99197,-0.59934 22.48794,-0.59934 23.28752,0 37.18007,12.1866 37.18007,34.46209 0,21.87592 -14.99196,36.55976 -39.67872,36.55976 z"
     id="path2"
     sodipodi:nodetypes="ccccsccccccccsccsccssccssccccssssccssssccccssccsss"
     style="stroke-width:0.999183" />
</svg>
