<?xml version="1.0" encoding="UTF-8" standalone="no"?>
<svg
   xmlns:dc="http://purl.org/dc/elements/1.1/"
   xmlns:cc="http://creativecommons.org/ns#"
   xmlns:rdf="http://www.w3.org/1999/02/22-rdf-syntax-ns#"
   xmlns:svg="http://www.w3.org/2000/svg"
   xmlns="http://www.w3.org/2000/svg"
   xmlns:sodipodi="http://sodipodi.sourceforge.net/DTD/sodipodi-0.dtd"
   xmlns:inkscape="http://www.inkscape.org/namespaces/inkscape"
   version="1.1"
   id="svg10"
   width="1068"
   height="1087"
   viewBox="0 0 1068 1087"
   sodipodi:docname="lattes.svg"
   inkscape:version="1.0.2-2 (e86c870879, 2021-01-15)">
  <metadata
     id="metadata16">
    <rdf:RDF>
      <cc:Work
         rdf:about="">
        <dc:format>image/svg+xml</dc:format>
        <dc:type
           rdf:resource="http://purl.org/dc/dcmitype/StillImage" />
        <dc:title></dc:title>
      </cc:Work>
    </rdf:RDF>
  </metadata>
  <defs
     id="defs14">
    <inkscape:path-effect
       effect="fillet_chamfer"
       id="path-effect93"
       is_visible="true"
       lpeversion="1"
       satellites_param="C,0,0,1,0,58,0,5 @ C,0,0,1,0,58,0,5 @ C,0,0,1,0,58,0,5 @ C,0,0,1,0,58,0,5"
       unit="px"
       method="auto"
       mode="F"
       radius="58"
       chamfer_steps="4"
       flexible="false"
       use_knot_distance="true"
       apply_no_radius="true"
       apply_with_radius="true"
       only_selected="false"
       hide_knots="false" />
    <clipPath
       clipPathUnits="userSpaceOnUse"
       id="clipPath63">
      <rect
         style="fill:#0000ff;fill-rule:evenodd"
         id="rect65"
         width="1020.2084"
         height="994.01569"
         x="30.121687"
         y="14.406024" />
    </clipPath>
  </defs>
  <sodipodi:namedview
     pagecolor="#ffffff"
     bordercolor="#666666"
     borderopacity="1"
     objecttolerance="10"
     gridtolerance="10"
     guidetolerance="10"
     inkscape:pageopacity="0"
     inkscape:pageshadow="2"
     inkscape:window-width="2400"
     inkscape:window-height="1271"
     id="namedview12"
     showgrid="false"
     showguides="false"
     inkscape:lockguides="true"
     inkscape:zoom="0.87411124"
     inkscape:cx="545.95304"
     inkscape:cy="601.27811"
     inkscape:window-x="-9"
     inkscape:window-y="-9"
     inkscape:window-maximized="1"
     inkscape:current-layer="svg10" />
  <g
     inkscape:groupmode="layer"
     id="layer2"
     inkscape:label="Layer 1"
     style="display:inline" />
  <g
     inkscape:groupmode="layer"
     id="layer3"
     inkscape:label="Layer 2"
     style="display:inline">
    <path
       style="fill:#0000ff;fill-rule:evenodd"
       id="rect91"
       width="975.68073"
       height="932.46265"
       x="58.421558"
       y="49.284725"
       inkscape:path-effect="#path-effect93"
       d="m 116.42156,49.284725 h 859.68072 l 17.92299,2.838722 16.16853,8.238293 12.8315,12.831441 8.2383,16.168559 2.8387,17.92299 v 816.46264 l -2.8387,17.92299 -8.2383,16.16856 -12.8315,12.83144 -16.16853,8.23829 -17.92299,2.83872 H 116.42156 L 98.498573,978.90865 82.330014,970.67036 69.498573,957.83892 61.26028,941.67036 58.421558,923.74737 V 107.28473 L 61.26028,89.36174 69.498573,73.193181 82.330014,60.36174 98.498573,52.123447 Z"
       sodipodi:type="rect"
       clip-path="none" />
  </g>
  <g
     id="g67"
     transform="matrix(1,0,0,0.89240446,40.54223,56.473968)"
     clip-path="none"
     style="fill:#f9f9f9">
    <path
       style="fill:#f9f9f9"
       d="m 313.46675,996.80839 c -1.17883,-0.82569 -2.43858,-2.84553 -2.79944,-4.48853 -0.36087,-1.64301 -1.0715,-3.24401 -1.57919,-3.55778 -0.50768,-0.31377 -0.92306,-1.48699 -0.92306,-2.60717 0,-1.12018 -0.62648,-3.23113 -1.39218,-4.69099 -1.29719,-2.47321 -2.5721,-5.62446 -6.33329,-15.65429 -0.825,-2.2 -2.175,-5.8 -3,-8 -0.825,-2.2 -2.09496,-5.575 -2.82214,-7.5 -0.72718,-1.925 -2.73535,-7.325 -4.4626,-12 -1.72725,-4.675 -3.72491,-9.85 -4.43924,-11.5 -1.2669,-2.92634 -3.00877,-7.3886 -6.05055,-15.5 -0.825,-2.2 -2.175,-5.8 -3,-8 -0.825,-2.2 -2.21646,-5.9125 -3.09213,-8.25 -1.63942,-4.37622 -2.91319,-7.47809 -5.763,-14.03393 -0.90468,-2.08116 -1.64487,-4.40719 -1.64487,-5.16896 0,-0.76177 -0.63073,-2.659 -1.40162,-4.21607 -2.57696,-5.20501 -4.59838,-10.38517 -4.59838,-11.78393 0,-0.76177 -0.63073,-2.659 -1.40162,-4.21607 -2.57696,-5.20501 -4.59838,-10.38517 -4.59838,-11.78393 0,-0.76177 -0.63073,-2.659 -1.40162,-4.21607 -2.57696,-5.20501 -4.59838,-10.38517 -4.59838,-11.78393 0,-0.76177 -0.63073,-2.659 -1.40162,-4.21607 -2.57696,-5.20501 -4.59838,-10.38517 -4.59838,-11.78393 0,-0.76177 -0.63918,-2.659 -1.4204,-4.21607 -0.78122,-1.55707 -2.13122,-4.74354 -3,-7.08104 -0.86878,-2.3375 -2.2546,-6.05 -3.0796,-8.25 -0.825,-2.2 -2.175,-5.8 -3,-8 -2.83165,-7.55107 -4.77351,-12.50433 -6.13582,-15.65113 -0.7503,-1.73312 -1.36418,-3.63035 -1.36418,-4.21607 0,-0.58572 -0.63746,-2.54271 -1.41658,-4.34887 -0.77911,-1.80616 -2.12911,-4.92694 -3,-6.93506 -0.87088,-2.00812 -1.58342,-4.09418 -1.58342,-4.63569 0,-0.54151 -0.67223,-2.2735 -1.49384,-3.84887 -0.82161,-1.57537 -1.49661,-3.56181 -1.5,-4.41431 -0.003,-0.8525 -0.38498,-1.9775 -0.84797,-2.5 -0.463,-0.5225 -3.23418,-7.475 -6.15819,-15.45 -2.92401,-7.975 -5.69519,-14.9275 -6.15819,-15.45 -0.46299,-0.5225 -0.85708,-1.6475 -0.87574,-2.5 -0.0187,-0.8525 -0.90339,-3.35 -1.96607,-5.55 -1.06268,-2.2 -1.94741,-4.56861 -1.96607,-5.26357 -0.0187,-0.69496 -0.49074,-2.04496 -1.04907,-3 -0.55833,-0.95504 -5.95151,-15.01143 -11.98486,-31.23643 -6.03335,-16.225 -11.42653,-30.28139 -11.98486,-31.23643 -0.55833,-0.95504 -1.01514,-2.46061 -1.01514,-3.34571 0,-0.8851 -0.61784,-2.80371 -1.37297,-4.26357 -2.55721,-4.94374 -4.62703,-10.21506 -4.62703,-11.78392 0,-0.85898 -0.61784,-2.75622 -1.37297,-4.21608 -2.55721,-4.94374 -4.62703,-10.21506 -4.62703,-11.78392 0,-0.85898 -0.61784,-2.75622 -1.37297,-4.21608 -6.34577,-12.26799 -6.2276,-17.15429 0.41486,-17.15429 2.10535,0 5.02796,0.45626 6.49469,1.01391 1.46672,0.55764 5.43352,1.65929 8.81509,2.4481 3.38158,0.78881 8.87589,2.07271 12.20958,2.85311 3.33369,0.78041 7.60869,1.88979 9.5,2.4653 3.6495,1.1105 8.96556,2.48935 17.93875,4.65284 11.98463,2.88957 15.66117,3.86623 19.53343,5.18896 2.21839,0.75778 4.69339,1.37126 5.5,1.36329 0.80661,-0.008 4.39157,0.85628 7.96657,1.92055 6.66454,1.98401 12.23322,3.22759 24.5,5.47125 3.85,0.70419 8.575,1.7764 10.5,2.3827 3.5594,1.12106 10.52228,2.37516 24,4.32267 4.125,0.59605 10.425,1.6895 14,2.42988 3.575,0.74037 9.65,1.63296 13.5,1.98351 3.85,0.35056 10.825,1.25654 15.5,2.01328 4.675,0.75674 16.375,1.87813 26,2.49198 9.625,0.61385 20.425,1.53154 24,2.03932 20.61473,2.92805 112.80281,0.0143 125.9934,-3.98221 1.92137,-0.58214 5.52137,-1.05267 8,-1.04562 2.47863,0.007 7.8816,-0.69894 12.0066,-1.56886 4.125,-0.86992 10.875,-2.25911 15,-3.0871 36.09796,-7.24575 70.549,-17.61324 95,-28.58873 5.57185,-2.50108 30.29942,-14.68968 32.5,-16.01976 1.1,-0.66486 4.25,-2.52717 7,-4.13847 23.95469,-14.03564 49.06896,-35.29688 62.33012,-52.76742 10.13884,-13.35713 12.57534,-16.85968 15.89005,-22.84248 10.56585,-19.07052 14.27008,-28.47513 18.1182,-46 2.62346,-11.94755 3.89978,-42.62554 2.12181,-51 -0.64224,-3.025 -1.53288,-8.65 -1.97921,-12.5 -0.77372,-6.67403 -2.11313,-13.45517 -3.9504,-20 -2.87028,-10.22464 -5.28204,-18.26734 -5.99738,-20 -0.45415,-1.1 -2.26789,-6.05 -4.03054,-11 -1.76264,-4.95 -4.25065,-11.7 -5.52889,-15 -7.6187,-19.66893 -9.19893,-25.29712 -9.89683,-35.24878 -1.05958,-15.10899 2.01179,-18.01909 13.54864,-12.83728 3.6745,1.65042 7.77232,4.89248 12.95552,10.25 12.45182,12.87061 33.40221,35.79208 38.87684,42.53449 2.81417,3.46586 7.63295,9.32086 10.7084,13.0111 3.07545,3.69025 7.11481,8.86525 8.97635,11.5 6.41749,9.08309 20.35732,30.28035 20.35732,30.95587 0,0.37242 0.60772,1.38755 1.35048,2.25586 3.42642,4.00556 22.64952,42.39627 22.64952,45.23365 0,0.57008 0.62648,2.23094 1.39218,3.6908 2.11525,4.0329 6.59925,16.15047 9.12309,24.65429 4.44098,14.96336 6.20524,21.87667 7.65595,30 0.49111,2.75 1.2915,7.025 1.77865,9.5 2.16147,10.98142 5.37457,36.86473 5.15174,41.5 -0.0529,1.1 -0.25818,10.55 -0.45621,21 -0.35677,18.82613 -1.83742,32.14212 -4.00298,36 -0.61746,1.1 -1.62629,6.5 -2.24185,12 -0.75548,6.75032 -2.10449,12.43726 -4.15121,17.5 -3.76308,9.30834 -5.22122,13.51362 -6.24131,18 -0.7597,3.34121 -2.34891,7.48009 -8.44734,22 -4.31421,10.27182 -21.42009,44.92313 -24.91418,50.46856 -1.74362,2.76729 -3.70409,5.93144 -4.35658,7.03144 -8.67497,14.62453 -21.44405,33.17201 -28.67556,41.65213 -1.71291,2.00868 -5.79603,6.95868 -9.07359,11 -8.3572,10.30466 -49.62131,51.12371 -58.98405,58.34787 -4.27691,3.3 -10.53932,8.42042 -13.91647,11.37871 -11.64745,10.20283 -43.25091,31.72002 -69.64028,47.41453 -15.38606,9.15052 -22.81727,13.23165 -40.5,22.24213 -6.05,3.08286 -11.675,6.01046 -12.5,6.50577 -1.4133,0.84852 -7.3368,3.59365 -20,9.2686 -3.025,1.35564 -8.425,3.81192 -12,5.45839 -6.80607,3.13454 -21.66872,9.3546 -28.5,11.92732 -2.2,0.82854 -5.47777,2.13601 -7.28393,2.90549 -1.80616,0.76948 -4.1421,1.39906 -5.19098,1.39906 -1.04888,0 -2.15694,0.40432 -2.46235,0.89848 -0.30541,0.49417 -4.04447,2.0451 -8.30902,3.44652 -4.26454,1.40141 -10.22872,3.51097 -13.25372,4.6879 -3.025,1.17694 -6.85,2.49274 -8.5,2.92401 -1.65,0.43127 -4.125,1.23568 -5.5,1.78759 -2.38143,0.95588 -4.70433,1.68558 -18.5,5.81148 -3.3,0.98694 -9.15,2.80825 -13,4.04736 -3.85,1.2391 -8.8,2.76798 -11,3.39749 -2.2,0.62952 -6.25,1.81458 -9,2.63348 -2.75,0.8189 -7.7,2.14241 -11,2.94113 -3.3,0.79872 -8.7,2.13933 -12,2.97913 -3.3,0.83981 -7.8,1.87901 -10,2.30934 -2.2,0.43033 -5.575,1.27302 -7.5,1.87265 -5.00973,1.56051 -11.79304,3.25186 -17,4.2388 -2.475,0.46911 -5.76679,1.34157 -7.3151,1.93879 -1.5483,0.59722 -4.61539,1.08585 -6.81574,1.08585 -2.20035,0 -4.77214,0.41289 -5.71508,0.91754 -0.94294,0.50464 -4.85085,1.40218 -8.68426,1.99452 -3.8334,0.59235 -10.34482,1.75958 -14.46982,2.59387 -4.125,0.83428 -10.2,1.91636 -13.5,2.40462 -3.3,0.48827 -7.26679,1.38314 -8.8151,1.9886 -1.5483,0.60547 -4.52923,1.10085 -6.62427,1.10085 -2.09505,0 -5.72233,0.675 -8.06063,1.5 -5.42771,1.91501 -10.9632,1.91451 -13.69831,-10e-4 z M 457.66506,606.3511 c -4.4,-0.42503 -10.44418,-1.50824 -13.4315,-2.40713 -2.98733,-0.89889 -7.26233,-1.64493 -9.5,-1.65788 -2.23768,-0.0129 -7.41307,-0.91294 -11.50087,-2 -4.08781,-1.08705 -8.73894,-1.97646 -10.33587,-1.97646 -1.59692,0 -5.67735,-0.65197 -9.06763,-1.44882 -9.33286,-2.19361 -22.34295,-4.56543 -30.20465,-5.50651 -3.87229,-0.46352 -9.46646,-1.5632 -12.4315,-2.44372 -2.96504,-0.88052 -7.25263,-1.60095 -9.52798,-1.60095 -2.27535,0 -6.35617,-0.6306 -9.0685,-1.40134 -2.71232,-0.77073 -7.6315,-1.68062 -10.9315,-2.02197 -3.3,-0.34136 -8.20902,-1.28575 -10.90893,-2.09867 -2.69991,-0.81291 -6.74991,-1.48336 -9,-1.48989 -2.25009,-0.007 -6.56607,-0.67121 -9.59107,-1.47707 -3.025,-0.80587 -8.2,-1.74689 -11.5,-2.09116 -3.3,-0.34427 -8.25,-1.21757 -11,-1.94068 -2.75,-0.7231 -7.85447,-1.60383 -11.34326,-1.95718 -3.48879,-0.35335 -7.53879,-1.10114 -9,-1.66175 -1.46121,-0.56061 -5.58174,-1.36987 -9.15674,-1.79836 -7.43672,-0.89135 -21.48543,-3.42776 -31,-5.59687 -3.575,-0.81502 -8.02801,-1.47808 -9.89557,-1.47346 -1.86756,0.005 -7.26756,-0.86573 -12,-1.93412 -7.94295,-1.79318 -12.59478,-2.63259 -28.44856,-5.13346 -6.1828,-0.97531 -10.89685,-3.63726 -12.82656,-7.24296 -1.19919,-2.2407 -3.33891,-11.34596 -4.74251,-20.18106 -0.43689,-2.75 -1.31014,-7.1375 -1.94057,-9.75 -0.63043,-2.6125 -1.66203,-6.8875 -2.29246,-9.5 -0.63043,-2.6125 -1.43141,-7 -1.77995,-9.75 -0.34855,-2.75 -0.97296,-5.54414 -1.38757,-6.2092 -0.41462,-0.66506 -1.15595,-4.04006 -1.6474,-7.5 -0.49146,-3.45994 -1.62818,-11.0158 -2.52605,-16.7908 -0.89788,-5.775 -1.97561,-14.12609 -2.39495,-18.55797 -0.41935,-4.43189 -1.15476,-8.69274 -1.63425,-9.46856 -1.09283,-1.76824 -2.40014,-25.22286 -3.1477,-56.47347 -0.63568,-26.57382 0.99045,-66.01074 3.175,-77 0.76534,-3.85 1.83339,-10.15 2.37345,-14 1.33417,-9.51121 2.9862,-18.0059 4.66747,-24 2.46916,-8.8031 4.53723,-16.88816 5.37157,-21 0.4464,-2.2 2.21972,-7.375 3.9407,-11.5 1.72098,-4.125 3.1306,-8.02603 3.13248,-8.66896 0.004,-1.34643 0.15185,-1.66321 10.426,-22.33104 8.42053,-16.93904 8.0816,-16.3255 14.64,-26.50149 2.50942,-3.8936 4.86476,-7.7361 5.23409,-8.53889 1.01183,-2.19932 10.46528,-14.85655 16.88222,-22.60361 8.53658,-10.30605 21.29754,-23.25774 30.82112,-31.28179 8.27625,-6.97312 30.02476,-22.25452 34.34647,-24.133258 1.18444,-0.5149 3.03648,-1.499757 4.11565,-2.18857 5.34916,-3.414285 9.81056,-5.688368 18.03788,-9.194336 4.95,-2.109379 10.41801,-4.447869 12.15113,-5.196644 1.73312,-0.748774 3.63035,-1.361408 4.21607,-1.361408 0.58572,0 2.54271,-0.616228 4.34887,-1.369395 11.29547,-4.710203 35.15572,-10.862606 49.03021,-12.642518 3.71046,-0.476002 7.22337,-1.160314 7.80648,-1.520692 0.5831,-0.360379 3.39727,-1.037701 6.25371,-1.505159 2.85644,-0.467459 7.66853,-1.371948 10.69353,-2.009976 3.42271,-0.721912 11.16535,-0.98944 20.5,-0.708327 11.16857,0.336341 15.67479,0.115187 17.64177,-0.865818 2.06645,-1.030606 5.38078,-1.123436 15.2186,-0.426256 6.91725,0.490208 13.14363,1.241599 13.83641,1.669758 0.69278,0.428159 7.79441,1.073203 15.78141,1.433432 7.98699,0.360228 19.02181,1.369142 24.52181,2.242032 33.37053,5.296144 39.8191,6.441964 42.8151,7.607633 1.5483,0.602407 4.37526,1.095286 6.28212,1.095286 1.90686,0 4.9609,0.624183 6.78675,1.387072 1.82585,0.76289 5.2989,1.691279 7.71788,2.063086 2.41898,0.371808 6.42315,1.283087 8.89815,2.025064 2.475,0.741978 6.525,1.865435 9,2.496571 7.36883,1.879084 14.3053,3.802708 17.5,4.8531 1.65,0.542508 4.575,1.508712 6.5,2.14712 1.925,0.638407 5.6375,1.805871 8.25,2.594364 15.93298,4.808818 21.3951,6.666339 26.40113,8.978312 1.73312,0.800421 3.85535,1.455311 4.71607,1.455311 0.86072,0 3.04271,0.629576 4.84887,1.399057 1.80616,0.769482 5.30893,2.199089 7.78393,3.176905 2.475,0.977814 6.38781,2.598234 8.69514,3.600934 2.30732,1.00271 4.61179,1.8231 5.12104,1.8231 1.05921,0 17.69887,7.25022 29.99198,13.06807 4.56948,2.16256 8.5038,3.93193 8.74292,3.93193 0.23912,0 5.27545,2.28249 11.19184,5.0722 5.9164,2.78971 12.10708,5.66733 13.75708,6.39472 9.36353,4.12783 9.69728,4.36811 14.77274,10.63607 4.5263,5.58977 4.92408,9.7911 1.27271,13.44246 -1.35,1.35 -3.54342,2.45455 -4.87427,2.45455 -1.33085,0 -4.3888,0.71626 -6.79545,1.59168 -5.10337,1.85636 -18.26678,1.41748 -29.53406,-0.98469 -3.76292,-0.80226 -11.11667,-1.70652 -16.34167,-2.00949 -5.225,-0.30297 -11.075,-1.01311 -13,-1.5781 -1.925,-0.56499 -9.125,-1.47747 -16,-2.02773 -6.875,-0.55027 -15.2,-1.46766 -18.5,-2.03864 -10.64989,-1.84271 -65.95091,-3.38671 -75.0519,-2.09545 -4.42854,0.62833 -9.82854,1.13289 -12,1.12125 -5.17254,-0.0277 -23.56929,2.78824 -30.03599,4.5976 -2.79834,0.78296 -5.88795,1.42357 -6.86579,1.42357 -1.74043,0 -4.39488,0.77676 -17.54632,5.13451 -11.91257,3.94725 -14.44427,4.97289 -23,9.31772 -17.16987,8.71932 -22.88855,12.62704 -32.04112,21.89449 -13.35351,13.52111 -20.91797,26.04527 -28.78211,47.65328 -6.91259,18.99346 -9.12315,34.71414 -9.29896,66.1306 -0.0789,14.09683 0.15341,26.1109 0.51621,26.69792 0.3628,0.58703 1.08731,6.60326 1.61003,13.3694 0.52271,6.76614 1.61707,16.57708 2.4319,21.80208 0.81484,5.225 1.90429,12.2 2.42099,15.5 0.94279,6.02126 2.02976,11.12876 4.14994,19.5 0.62684,2.475 1.49148,6.525 1.92141,9 0.42993,2.475 1.29695,5.76679 1.9267,7.3151 0.62976,1.5483 1.14501,3.96291 1.14501,5.36579 0,1.40287 0.65835,4.63608 1.46299,7.1849 1.35201,4.28267 3.34142,11.54008 5.51921,20.13421 1.16383,4.5928 6.81683,23.66752 8.14992,27.5 0.57393,1.65 1.4232,4.35 1.88726,6 1.34973,4.79911 3.91089,11.8523 4.98797,13.73643 0.54596,0.95504 0.99265,2.40227 0.99265,3.21607 0,0.81381 0.62958,2.95741 1.39906,4.76357 1.39218,3.26779 3.56867,8.88406 6.21367,16.03393 3.26743,8.83236 4.64729,12.42728 5.85352,15.25 0.70509,1.65 1.9629,4.8 2.79513,7 0.83223,2.2 2.28034,6.025 3.21802,8.5 0.93767,2.475 2.28176,5.85 2.98685,7.5 0.70509,1.65 2.05509,5.025 3,7.5 0.94491,2.475 2.35351,5.85 3.13024,7.5 2.13184,4.52869 6.52858,17.60162 7.06279,21 1.0392,6.61088 -3.65891,8.13537 -20.15928,6.54147 z m 150.5,-112.52582 c -2.475,-0.74508 -6.87695,-1.39091 -9.78212,-1.43517 -2.90516,-0.0443 -6.776,-0.70466 -8.60185,-1.46755 -1.82585,-0.76289 -5.22318,-1.70866 -7.54961,-2.10171 -2.32644,-0.39305 -5.43061,-1.34109 -6.89815,-2.10677 -1.46755,-0.76567 -3.72384,-1.3949 -5.01398,-1.39829 -1.29014,-0.003 -3.54014,-0.66262 -5,-1.46496 -3.31288,-1.82077 -11.8267,-5.5412 -12.68045,-5.5412 -0.34973,0 -3.67552,-1.52549 -7.39063,-3.38997 -26.97352,-13.53707 -57.29607,-38.88033 -72.52833,-60.6184 -3.05519,-4.36007 -5.55488,-8.32211 -5.55488,-8.80453 0,-0.48242 -0.86095,-1.65628 -1.91323,-2.60858 -1.05228,-0.95229 -3.79353,-5.63454 -6.09166,-10.40498 -2.29813,-4.77045 -4.58949,-9.45864 -5.09191,-10.41821 -0.50242,-0.95956 -1.8344,-4.78456 -2.95997,-8.5 -1.12556,-3.71543 -2.52273,-8.10533 -3.10482,-9.75533 -0.58209,-1.65 -1.41534,-5.25 -1.85168,-8 -0.43634,-2.75 -1.28685,-6.26679 -1.89004,-7.8151 -1.29867,-3.33356 -1.3727,-29.15267 -0.10231,-35.6849 1.97671,-10.16408 3.88274,-15.81463 9.68766,-28.71975 6.61846,-14.71372 20.82657,-28.64537 41.81796,-41.00427 2.14597,-1.26346 7.67251,-3.91267 13.78393,-6.60747 2.08116,-0.91768 4.69824,-1.66851 5.81574,-1.66851 1.1175,0 3.00016,-0.51824 4.1837,-1.15165 6.09025,-3.25941 43.50277,-4.94103 55.1071,-2.47697 3.91024,0.8303 9.13453,1.79499 11.60953,2.14375 2.475,0.34876 6.3,1.2179 8.5,1.93142 2.2,0.71352 6.7,2.10469 10,3.09149 10.85449,3.24581 18.63463,6.42814 30.5,12.47549 12.70448,6.47502 11.17085,5.57094 26.739,15.76261 18.65198,12.21048 42.5337,36.0303 54.64393,54.50228 3.60373,5.49684 13.56944,24.57542 15.78628,30.22158 4.37465,11.14201 5.72616,17.66436 6.73444,32.5 0.87738,12.9097 -0.14497,27.49032 -2.34893,33.5 -0.80681,2.2 -1.48669,5.32762 -1.51083,6.95028 -0.0241,1.62265 -2.61476,8.1184 -5.75694,14.43501 -4.85045,9.75067 -7.04058,12.87335 -14.50533,20.68161 -4.83575,5.05829 -11.37738,10.90445 -14.53695,12.99147 -15.95509,10.53899 -15.00961,10.05816 -28.74467,14.61825 -18.58571,6.17052 -24.24645,7.1377 -48,8.20123 -7.65711,0.34283 -12.36754,0.0808 -15.5,-0.8622 z"
       id="path81" />
    <path
       style="fill:#f9f9f9"
       d="m 314.52091,995.64195 c -1.13798,-1.00778 -2.85198,-4.08232 -3.8089,-6.83232 -0.95692,-2.75 -3.75114,-10.175 -6.20938,-16.5 -6.27934,-16.15664 -7.36233,-18.96478 -9.06304,-23.5 -0.825,-2.2 -2.175,-5.8 -3,-8 -0.825,-2.2 -2.08971,-5.575 -2.81047,-7.5 -1.09989,-2.93758 -6.15074,-16.03665 -11.95324,-31 -8.74061,-22.54009 -11.28116,-29.15548 -14.78535,-38.5 -3.27165,-8.7244 -4.9886,-13.14376 -6.32641,-16.28393 -0.76948,-1.80616 -1.39906,-3.94976 -1.39906,-4.76357 0,-0.8138 -0.44232,-2.26103 -0.98293,-3.21607 -0.90334,-1.59584 -2.79981,-6.48508 -11.14646,-28.73643 -1.65047,-4.4 -3.64655,-9.6875 -4.43573,-11.75 -1.68837,-4.41249 -3.12205,-8.23686 -7.4039,-19.75 -5.96894,-16.04944 -8.62541,-22.93572 -10.6668,-27.65113 -0.7503,-1.73312 -1.36418,-3.65173 -1.36418,-4.26357 0,-0.61184 -0.4551,-1.89383 -1.01134,-2.84887 -0.55624,-0.95504 -3.9436,-9.61143 -7.52747,-19.23643 -3.58387,-9.625 -7.17877,-18.91801 -7.98866,-20.65113 -0.80989,-1.73312 -1.47253,-3.84406 -1.47253,-4.69098 0,-0.84692 -0.41538,-1.79657 -0.92306,-2.11034 -0.50769,-0.31377 -1.23991,-2.01305 -1.62716,-3.77619 -0.38725,-1.76314 -1.10423,-3.89548 -1.59328,-4.73854 -0.48905,-0.84305 -7.18382,-18.40782 -14.87726,-39.03282 -7.69344,-20.625 -14.37371,-38.4 -14.84504,-39.5 -0.47134,-1.1 -1.59436,-3.70277 -2.49559,-5.78393 -0.90124,-2.08116 -1.63861,-4.26315 -1.63861,-4.84887 0,-0.58572 -0.61388,-2.48295 -1.36418,-4.21607 -0.7503,-1.73312 -2.1003,-5.06363 -3,-7.40113 -0.8997,-2.3375 -2.36825,-6.0258 -3.26344,-8.19622 -1.73356,-4.20306 -1.37001,-6.73372 1.10372,-7.68298 0.83681,-0.32111 7.03451,0.85695 13.77268,2.61792 6.73817,1.76097 13.82622,3.55738 15.75122,3.99203 1.925,0.43465 10.7,2.69331 19.5,5.01925 8.8,2.32594 17.575,4.57828 19.5,5.00522 1.925,0.42693 7.775,1.97861 13,3.44818 5.225,1.46956 11.66867,3.07154 14.31926,3.55995 4.49591,0.82844 10.45932,2.12301 25.18074,5.46636 11.30537,2.56754 42.0048,7.77565 59.5,10.09407 47.57348,6.30434 105.88067,8.6836 144.5,5.89642 36.30417,-2.62011 40.24428,-3.0582 64,-7.11605 12.88653,-2.20122 32.5027,-6.3232 40,-8.40527 1.65,-0.45822 6.6,-1.80807 11,-2.99966 19.66553,-5.32574 53.18361,-16.93789 60.13376,-20.83299 1.02643,-0.57525 6.59124,-3.28736 12.36624,-6.02691 54.89346,-26.0404 94.43946,-63.9054 113.41009,-108.58932 5.74776,-13.53841 6.42491,-15.48525 7.65205,-22 0.62159,-3.3 1.51495,-7.8 1.98524,-10 0.47028,-2.2 1.17093,-11.95182 1.557,-21.6707 0.56435,-14.20698 0.36793,-19.98943 -1.00208,-29.5 -1.71579,-11.91103 -4.18266,-24.70045 -5.65714,-29.3293 -0.438,-1.375 -1.7716,-5.875 -2.96357,-10 -1.8695,-6.46975 -13.34343,-38.57242 -17.51326,-49 -2.85,-7.12706 -4.42298,-14.71787 -4.69196,-22.64225 -0.2325,-6.84978 0.026,-8.47683 1.62862,-10.25 2.40759,-2.66385 3.16088,-2.64012 9.72058,0.30619 5.85851,2.63137 11.03353,7.61032 34.38898,33.08606 30.22442,32.96829 49.94645,59.85917 66.00684,90 2.63758,4.95 5.16458,9.675 5.61555,10.5 1.49584,2.73648 9.86306,21.11064 9.86306,21.65899 0,0.29631 0.61388,1.95676 1.36418,3.68988 2.79055,6.44589 4.59417,11.40987 7.68509,21.15113 1.74516,5.5 3.798,11.81504 4.56187,14.03343 0.76387,2.21839 1.38886,5.19931 1.38886,6.62428 0,1.42496 0.61894,4.3451 1.37543,6.48921 0.75648,2.1441 1.6958,6.81318 2.08736,10.37573 0.39157,3.56254 1.32922,8.72735 2.08367,11.47735 1.46224,5.32999 3.80484,28.01149 3.66651,35.5 -0.0457,2.475 -0.12687,11.475 -0.18034,20 -0.10591,16.88451 -1.60687,32.06157 -3.56027,36 -0.68199,1.375 -1.55768,6.325 -1.94599,11 -0.47039,5.66317 -1.50787,10.22612 -3.10858,13.67198 -1.32141,2.84459 -3.05149,7.56959 -3.84461,10.5 -0.79313,2.93041 -1.98314,6.90302 -2.64448,8.82802 -0.66135,1.925 -1.87288,5.525 -2.6923,8 -0.81942,2.475 -2.07974,5.85 -2.8007,7.5 -0.72096,1.65 -2.50425,5.925 -3.96285,9.5 -1.45861,3.575 -6.97221,15.275 -12.25244,26 -29.20646,59.32302 -67.08688,105.32842 -125.22041,152.07898 -18.65044,14.99855 -46.06204,34.15105 -62,43.31943 -9.07614,5.22109 -12.95388,7.53475 -17,10.14308 -3.37767,2.17741 -6.92472,4.10381 -28.5,15.47833 -13.83732,7.29506 -31.29465,15.98018 -32.12059,15.98018 -0.37753,0 -2.97985,1.07427 -5.78292,2.38727 -16.18504,7.58131 -29.29213,13.23916 -40.09649,17.30818 -2.2,0.82854 -5.47777,2.13601 -7.28393,2.90549 -1.80616,0.76948 -3.79286,1.39906 -4.41489,1.39906 -0.62204,0 -4.76927,1.39325 -9.21608,3.09611 -7.68834,2.94417 -10.72859,4.09243 -19.3351,7.30262 -2.0625,0.76931 -8.475,2.84988 -14.25,4.6235 -5.775,1.77361 -12.3,3.80547 -14.5,4.51522 -2.2,0.70976 -8.725,2.72347 -14.5,4.47491 -5.775,1.75144 -11.625,3.57691 -13,4.0566 -1.375,0.47969 -8.125,2.25199 -15,3.93845 -6.875,1.68645 -15.0875,3.7247 -18.25,4.52943 -6.31145,1.60603 -14.62761,3.68958 -23.5,5.88774 -3.1625,0.78352 -7.775,1.96576 -10.25,2.62719 -2.475,0.66143 -6.975,1.55598 -10,1.98788 -3.025,0.4319 -9.1,1.51095 -13.5,2.39788 -11.83134,2.38493 -23.30859,4.55302 -29.30105,5.53507 -2.91557,0.47781 -7.41557,1.325 -10,1.88265 -4.57808,0.98782 -15.13283,3.01049 -20.23651,3.87804 -1.54961,0.26341 -3.34309,-0.28202 -4.60659,-1.40097 z m 144.26895,-390.4291 c -4.33137,-0.45692 -9.28353,-1.29555 -11.00482,-1.86362 -1.72128,-0.56808 -6.27744,-1.45088 -10.12479,-1.96178 -6.78928,-0.90158 -16.59397,-2.68745 -30.99519,-5.64561 -8.37199,-1.7197 -21.84193,-4.09197 -33.5,-5.8999 -4.675,-0.725 -9.76679,-1.81636 -11.3151,-2.42524 -1.5483,-0.60889 -4.38677,-1.10707 -6.3077,-1.10707 -1.92093,0 -7.85414,-0.84641 -13.1849,-1.8809 -5.33077,-1.0345 -14.1923,-2.65071 -19.6923,-3.59158 -5.5,-0.94088 -14.725,-2.53432 -20.5,-3.541 -5.775,-1.00668 -16.125,-2.80412 -23,-3.99432 -6.875,-1.19021 -15.65,-2.7699 -19.5,-3.51043 -3.85,-0.74053 -12.625,-2.30445 -19.5,-3.47538 -6.875,-1.17092 -15.65,-2.74816 -19.5,-3.50496 -10.6725,-2.09792 -25.31738,-4.59793 -32,-5.46268 -3.3,-0.42704 -7.8,-1.24955 -10,-1.82782 -2.2,-0.57826 -6.35762,-1.35384 -9.23915,-1.7235 -2.88153,-0.36967 -6.69055,-1.65022 -8.46449,-2.84568 -3.56517,-2.40257 -4.74396,-5.19929 -7.22507,-17.14175 -0.91412,-4.4 -2.15424,-10.025 -2.75581,-12.5 -0.60157,-2.475 -1.43305,-6.525 -1.84771,-9 -1.24827,-7.45039 -3.0761,-16.31528 -4.02068,-19.5 -0.88979,-2.99999 -1.68748,-7.7983 -4.57171,-27.5 -5.65514,-38.6292 -7.7098,-68.62948 -6.98577,-102 0.75953,-35.00724 2.2547,-52.29497 6.3568,-73.5 0.85118,-4.4 1.87802,-10.025 2.28187,-12.5 1.0172,-6.23385 3.8996,-17.74824 5.57492,-22.27024 0.76824,-2.07363 1.3968,-4.66413 1.3968,-5.75668 0,-1.09254 1.60198,-6.14593 3.55995,-11.22976 1.95797,-5.08383 4.23788,-11.04332 5.06646,-13.24332 2.9735,-7.89508 14.48378,-30.23384 21.89857,-42.5 21.4202,-35.43507 43.9179,-59.37805 75.97502,-80.85575 7.15,-4.790369 18.4,-11.346253 25,-14.568627 6.6,-3.222375 12.78179,-6.245381 13.73731,-6.717792 2.33396,-1.153912 8.01014,-3.189953 21.76269,-7.806259 15.48659,-5.198371 29.69473,-8.597495 52.5,-12.55998 4.95,-0.860078 11.025,-2.102315 13.5,-2.760527 2.80192,-0.745153 10.53763,-1.113139 20.5,-0.975181 9.47928,0.131269 17.88925,-0.246487 20.63569,-0.926908 3.53567,-0.875951 7.33235,-0.854235 16,0.09152 6.25037,0.681995 17.62563,1.637484 25.27835,2.123307 36.6959,2.329594 85.29863,11.853694 129.58596,25.393419 2.475,0.756668 6.975,2.134923 10,3.062787 3.025,0.927864 7.525,2.29398 10,3.035813 2.475,0.741832 7.65,2.517681 11.5,3.94633 3.85,1.42865 10.15,3.671706 14,4.984569 7.20092,2.455539 12.64296,4.582979 18.15113,7.095769 1.73312,0.79063 3.60915,1.43752 4.16896,1.43752 0.55981,0 2.2918,0.64286 3.84887,1.42857 1.55707,0.78572 5.75604,2.65229 9.33104,4.14795 6.35786,2.6599 13.04297,5.69583 29.80913,13.53732 4.57002,2.13739 8.4713,3.88616 8.66951,3.88616 0.19821,0 5.4591,2.42591 11.69087,5.39092 9.94307,4.7308 11.78968,6.01334 15.08049,10.47402 6.32426,8.57251 4.53465,12.25456 -7.25,14.91657 -9.44603,2.13374 -14.62114,2.12926 -29,-0.0251 -6.325,-0.94767 -15.325,-2.15338 -20,-2.67936 -12.02129,-1.3525 -25.15081,-2.93534 -42.5,-5.12363 -19.9902,-2.52141 -67.6005,-3.68408 -84.03641,-2.05223 -23.97145,2.38003 -34.00181,4.067 -51.46359,8.65544 -16.78822,4.41145 -38.66132,14.07814 -52,22.98108 -14.49849,9.67705 -30.8548,30.16667 -38.38029,48.07912 -2.05263,4.88575 -4.12623,9.78318 -4.60801,10.88318 -1.48,3.37918 -4.80279,16.52854 -6.57008,26 -1.82073,9.7578 -3.29151,30.50927 -3.40205,48 -0.0815,12.89984 3.25762,46.71149 6.17234,62.5 0.55844,3.025 1.35986,8.04252 1.78093,11.15004 0.42106,3.10753 1.02228,6.06541 1.33604,6.57307 0.31375,0.50767 1.0477,3.59015 1.63099,6.84996 0.5833,3.25981 1.69815,8.62693 2.47745,11.92693 0.7793,3.3 2.09626,8.925 2.92659,12.5 0.83032,3.575 2.91626,11.675 4.63541,18 1.71916,6.325 3.48493,13.075 3.92395,15 1.17576,5.15549 11.28172,37.16324 13.5766,43 0.75686,1.925 2.78456,7.55 4.50599,12.5 1.72143,4.95 4.44933,12.2625 6.062,16.25 6.8412,16.91554 9.00968,22.37981 13.39362,33.75 2.54473,6.6 5.25102,13.35 6.01399,15 0.76296,1.65 1.68386,4.125 2.04644,5.5 0.36258,1.375 1.76672,5.33483 3.1203,8.79963 2.75368,7.04865 2.43299,9.84108 -1.29288,11.25765 -2.74603,1.04404 -3.43532,1.03683 -14.72453,-0.15406 z m 157.3752,-111.9239 c -13.38072,-1.35325 -24.3911,-3.07071 -29.5,-4.60158 -2.75,-0.82402 -7.475,-2.21041 -10.5,-3.08087 -8.41595,-2.42171 -14.20526,-4.69658 -27.5,-10.80595 -19.49697,-8.95949 -44.0592,-26.86743 -60.0682,-43.79479 -16.82058,-17.7855 -31.50211,-41.36953 -36.53951,-58.69613 -6.85087,-23.56418 -7.92795,-29.45544 -7.86156,-43 0.0776,-15.83254 1.77961,-23.64785 8.71113,-40 7.03726,-16.6016 16.7185,-28.20636 32.25814,-38.6673 8.67083,-5.83702 19.53598,-11.52978 26,-13.62263 2.475,-0.80133 6.29978,-2.03364 8.49952,-2.73847 9.6088,-3.07881 38.04315,-4.8641 48.87803,-3.06887 3.64235,0.6035 9.65995,1.57266 13.37245,2.15368 3.7125,0.58103 8.775,1.66399 11.25,2.40657 2.475,0.74258 7.2,2.14079 10.5,3.10713 28.91219,8.46636 61.85211,28.37087 87.33831,52.77566 6.17319,5.91125 19.99914,22.9052 25.403,31.22369 4.00491,6.165 12.66815,23.08444 14.81327,28.93054 5.47545,14.92222 7.00406,23.65901 7.03501,40.20856 0.0202,10.8047 -0.41473,15.41567 -2.00836,21.29144 -1.11879,4.125 -2.04475,8.5454 -2.05769,9.82312 -0.013,1.27771 -2.53455,7.52668 -5.60356,13.88659 -4.99057,10.34198 -6.58776,12.60201 -15.11992,21.39481 -12.86717,13.26024 -25.3445,21.21256 -41.80006,26.64091 -16.70521,5.5107 -23.53804,7.03676 -34.5,7.70528 -5.225,0.31865 -10.4,0.73861 -11.5,0.93324 -1.1,0.19463 -5.375,0.0125 -9.5,-0.40463 z"
       id="path79" />
    <path
       style="fill:#f9f9f9"
       d="m 313.80204,994.20174 c -0.90034,-1.28542 -1.63698,-2.9181 -1.63698,-3.62819 0,-0.71008 -0.45681,-2.07245 -1.01514,-3.02749 -0.55833,-0.95504 -5.92801,-14.78643 -11.93263,-30.73643 -15.49633,-41.16268 -22.90306,-60.54144 -24.4614,-64 -0.74344,-1.65 -5.27531,-13.575 -10.07082,-26.5 -4.79552,-12.925 -9.99311,-26.875 -11.55021,-31 -1.55711,-4.125 -4.27033,-11.325 -6.02938,-16 -1.75905,-4.675 -4.23078,-11.2 -5.49273,-14.5 -1.26195,-3.3 -3.93525,-10.5 -5.94067,-16 -2.00542,-5.5 -5.01135,-13.375 -6.67985,-17.5 -1.6685,-4.125 -3.61145,-9.075 -4.31767,-11 -0.70622,-1.925 -2.06049,-5.525 -3.0095,-8 -0.94901,-2.475 -2.29901,-6.075 -3,-8 -0.70099,-1.925 -1.97027,-5.3 -2.82061,-7.5 -0.85035,-2.2 -2.74189,-7.15 -4.20344,-11 -2.6755,-7.0478 -8.26205,-21.58296 -11.14607,-29 -0.85544,-2.2 -2.17962,-5.6875 -2.94261,-7.75 -1.76617,-4.77423 -3.94679,-10.58921 -6,-16 -2.05322,-5.41079 -4.23384,-11.22577 -6,-16 -2.27006,-6.13633 -4.56996,-12.117 -5.47991,-14.25 -0.46927,-1.1 -1.48434,-3.8 -2.25571,-6 -0.77137,-2.2 -5.5315,-14.8 -10.57807,-28 -12.15938,-31.80458 -12.65314,-33.32044 -11.29563,-34.67795 1.29851,-1.29851 9.43533,0.0891 21.22205,3.61898 7.45904,2.23386 12.49575,3.56731 23,6.08918 15.69222,3.7674 21.76718,5.34064 40.5,10.48832 4.4,1.2091 10.43362,2.61696 13.40804,3.12857 2.97442,0.51162 5.7316,1.13018 6.12707,1.3746 1.39589,0.86271 30.87885,6.59264 48.96489,9.51619 44.81483,7.24417 61.90956,8.84059 117.5,10.97293 27.8242,1.06728 56.88462,-0.0402 84,-3.20134 9.9,-1.15413 20.925,-2.4146 24.5,-2.80104 3.575,-0.38643 8.975,-1.22833 12,-1.87088 3.025,-0.64255 9.1,-1.88254 13.5,-2.75553 21.01114,-4.16875 57.38294,-14.18912 72.15246,-19.87788 16.8672,-6.49672 16.48345,-6.34037 25.84754,-10.53082 59.3982,-26.58082 99.37868,-61.96228 121.44312,-107.47333 9.74413,-20.09864 12.77166,-31.82394 14.20128,-55 1.22212,-19.81229 0.18917,-34.17163 -3.84858,-53.5 -2.76213,-13.22207 -7.97594,-30.78299 -11.43058,-38.5 -0.49243,-1.1 -1.30485,-3.35 -1.80538,-5 -0.50052,-1.65 -1.87746,-5.475 -3.05986,-8.5 -1.1824,-3.025 -2.5324,-6.625 -3,-8 -0.4676,-1.375 -1.81278,-4.975 -2.9893,-8 -4.52305,-11.62941 -6.9351,-27.43845 -4.97357,-32.59767 1.36392,-3.58737 3.37556,-3.8967 9.23272,-1.41972 6.44935,2.72743 10.20301,6.3032 33.08523,31.51739 36.1179,39.79874 50.46297,59.55791 71.14756,98 14.35557,26.67968 27.73803,66.9394 31.06069,93.44283 0.30635,2.44356 0.81254,4.85633 1.12489,5.36172 0.72925,1.17996 2.23878,12.68328 3.17505,24.19545 0.40258,4.95 0.41736,20.7 0.0328,35 -0.60101,22.35123 -0.97366,26.70169 -2.65542,31 -1.07597,2.75 -2.22253,8.60007 -2.54793,13.00016 -0.42616,5.76273 -1.41123,9.81799 -3.52223,14.5 -1.61183,3.57491 -3.26966,8.07304 -3.68405,9.99583 -0.4144,1.9228 -1.30667,4.8478 -1.98283,6.5 -0.67616,1.65221 -2.01201,5.47901 -2.96855,8.50401 -0.95655,3.025 -2.33788,6.85 -3.06961,8.5 -0.73174,1.65 -3.17591,7.4 -5.43149,12.77778 -6.02362,14.36158 -21.07449,43.91852 -27.47001,53.94567 -3.06019,4.7979 -5.56399,8.94564 -5.56399,9.21719 0,1.18075 -18.1067,26.0931 -26.88699,36.99282 -30.62992,38.02358 -72.13989,74.54288 -123.61301,108.75124 -10.7417,7.1388 -39.34805,23.71005 -54.28401,31.44597 -9.1938,4.76183 -19.41599,10.08183 -22.71599,11.82222 -3.3,1.7404 -8.30058,4.13635 -11.11239,5.32434 -2.81182,1.18798 -7.98682,3.48692 -11.5,5.10874 -19.21186,8.86892 -46.77319,20.09598 -49.38761,20.11795 -0.55,0.005 -2.24265,0.65662 -3.76145,1.44888 -1.5188,0.79226 -6.0188,2.55606 -10,3.91956 -3.9812,1.36349 -11.73855,4.04191 -17.23855,5.95203 -5.5,1.91013 -14.725,4.90535 -20.5,6.65605 -5.775,1.7507 -12.3,3.76206 -14.5,4.46967 -2.2,0.70762 -6.7,2.07553 -10,3.03982 -3.3,0.96428 -7.47777,2.37352 -9.28393,3.13165 -1.80616,0.75813 -4.01661,1.37842 -4.9121,1.37842 -0.8955,0 -3.91774,0.64544 -6.71608,1.4343 -2.79834,0.78887 -8.01289,2.16803 -11.58789,3.0648 -3.575,0.89677 -7.87361,2.04832 -9.55247,2.559 -1.67887,0.51068 -5.05387,1.33807 -7.5,1.83865 -2.4461,0.50058 -8.27249,1.88525 -12.94749,3.07706 -16.11082,4.10715 -20.16784,5.02619 -22.18769,5.02619 -1.11438,0 -5.01553,0.6484 -8.66923,1.44089 -3.65369,0.79249 -10.46808,2.17189 -15.14308,3.06534 -14.06863,2.68866 -23.24977,4.4928 -28,5.50213 -5.20934,1.10688 -15.66999,2.8854 -21.61302,3.67465 -3.51603,0.46693 -4.35062,0.20699 -5.75,-1.7909 z M 456.96036,604.26522 c -3.68758,-0.42986 -7.11728,-1.03655 -7.62154,-1.3482 -0.50427,-0.31166 -5.13716,-1.23087 -10.29531,-2.04271 -5.15815,-0.81183 -15.45345,-2.66098 -22.87845,-4.10922 -7.425,-1.44823 -15.975,-3.02858 -19,-3.51187 -3.025,-0.48329 -7.75,-1.35002 -10.5,-1.92606 -2.75,-0.57604 -7.925,-1.4851 -11.5,-2.02014 -3.575,-0.53503 -9.425,-1.63183 -13,-2.43733 -3.575,-0.80551 -9.875,-1.96652 -14,-2.58004 -4.125,-0.61352 -12.675,-2.01696 -19,-3.11875 -6.325,-1.10179 -15.1,-2.62178 -19.5,-3.37774 -4.4,-0.75597 -13.4,-2.33584 -20,-3.51083 -6.6,-1.175 -14.7,-2.54834 -18,-3.05189 -3.3,-0.50355 -9.15,-1.56549 -13,-2.35987 -3.85,-0.79438 -12.625,-2.39859 -19.5,-3.56491 -6.875,-1.16633 -15.425,-2.76874 -19,-3.56093 -3.575,-0.79218 -7.74535,-1.43915 -9.26745,-1.43771 -1.52209,0.001 -6.92209,-0.83771 -12,-1.86476 -10.15944,-2.05485 -24.76356,-4.68962 -31.68088,-5.71564 -6.8311,-1.01323 -12.01983,-7.72684 -12.04609,-15.58622 -0.003,-0.91808 -0.62957,-4.29308 -1.39222,-7.5 -0.76265,-3.20692 -1.9408,-8.53077 -2.61811,-11.83077 -0.67731,-3.3 -1.79891,-8.7 -2.49243,-12 -4.61871,-21.97714 -4.24252,-19.82902 -8.93153,-51 -6.59646,-43.85113 -7.26184,-110.87741 -1.48905,-150 3.59253,-24.34682 10.23884,-53.45498 14.95571,-65.5 1.1846,-3.025 2.81378,-7.61792 3.6204,-10.20649 0.80662,-2.58857 4.77012,-11.36357 8.80777,-19.5 6.69523,-13.49181 8.93049,-17.53363 18.07856,-32.68977 5.48786,-9.09207 22.41789,-31.04283 31.21502,-40.47208 23.77093,-25.47899 60.10367,-49.293198 91.67403,-60.087525 12.18039,-4.164639 17.47177,-5.843667 23.56627,-7.477898 3.575,-0.958632 8.75,-2.369051 11.5,-3.134265 2.75,-0.765214 11.75,-2.543729 20,-3.952257 8.25,-1.408528 18.17062,-3.20262 22.04583,-3.986872 9.20691,-1.863262 51.99789,-2.244802 70.95417,-0.632653 20.39416,1.734436 48.78935,5.051744 58,6.775934 35.78066,6.69797 63.36106,13.527553 91.5,22.657646 4.125,1.338417 11.1,3.596738 15.5,5.018491 4.4,1.421753 12.5,4.234843 18,6.251312 5.5,2.016469 11.8,4.321087 14,5.121377 2.2,0.8003 4.4275,1.87357 4.95,2.38506 0.5225,0.5115 1.55794,0.92999 2.30099,0.92999 1.89557,0 19.75606,7.65263 40.24901,17.24538 9.71476,4.54747 20.93244,9.68349 26,11.9041 8.58771,3.76315 10.51947,5.10125 14.25,9.87083 4.3255,5.53025 4.82259,9.27799 1.5,11.30884 -1.2375,0.75639 -6.00819,2.20081 -10.60153,3.20982 -8.23668,1.80933 -8.57363,1.80482 -24.5,-0.32835 -54.32473,-7.27622 -73.5447,-9.16502 -105.36613,-10.35464 -25.48731,-0.95283 -31.29649,-0.87881 -45.5,0.5797 -21.55355,2.21326 -38.93693,5.18833 -50.28234,8.60555 -11.91376,3.5884 -18.92288,6.19589 -28.27734,10.51956 -2.90253,1.34157 -5.45454,2.43921 -5.67113,2.43921 -1.06664,0 -18.14168,10.359 -22.26648,13.50852 -7.80317,5.95816 -19.45846,19.75723 -27.02141,31.99148 -2.24684,3.63462 -6.99491,13.89737 -9.48435,20.5 -8.35825,22.16826 -10.99444,39.71548 -10.88937,72.48289 0.101,31.50126 2.06269,50.16156 9.20033,87.51711 1.5372,8.04505 6.13644,28.13869 8.12562,35.5 0.59449,2.2 1.41136,5.575 1.81526,7.5 2.67934,12.76954 16.5433,57.37268 23.00138,74 1.17491,3.025 2.38933,6.4 2.69871,7.5 0.56996,2.0265 6.60393,17.32701 8.28165,21 0.50244,1.1 2.53437,6.275 4.51539,11.5 1.98103,5.225 4.00024,10.4 4.48714,11.5 3.22488,7.2856 7.9846,19.75174 7.9846,20.91241 0,0.76395 1.1206,3.79618 2.49023,6.73829 5.27487,11.33102 2.61062,13.05532 -16.69493,10.80489 z m 158.7047,-111.63743 c -11.32921,-1.44324 -24.46878,-3.51411 -27,-4.25534 -1.65,-0.48319 -5.7,-1.63437 -9,-2.5582 -42.56826,-11.91688 -84.63775,-42.24339 -109.34948,-78.82644 -10.25536,-15.18194 -16.18858,-28.25906 -20.49781,-45.17818 -4.13364,-16.22972 -4.65271,-19.84647 -4.65271,-32.41883 0,-13.05467 2.13755,-26.07805 5.51173,-33.58117 0.74201,-1.65 2.76254,-6.13828 4.49005,-9.97395 5.80261,-12.88374 15.33577,-23.94833 28.8411,-33.4742 21.17995,-14.9391 41.17696,-21.05185 68.86814,-21.05185 19.08989,0 44.36091,4.95263 61.78898,12.10944 2.75,1.12928 6.3287,2.57914 7.95268,3.2219 5.19218,2.05505 23.98991,11.77146 25.62606,13.24593 0.86831,0.7825 1.87086,1.42273 2.22789,1.42273 0.35704,0 4.77893,2.8125 9.82643,6.25 20.85274,14.20134 42.92354,36.28496 54.93285,54.96473 8.63674,13.43394 17.77169,33.37377 19.60103,42.78527 0.26727,1.375 1.19148,5.85136 2.05381,9.94747 1.84224,8.75071 1.24614,28.39059 -1.10943,36.55253 -0.79366,2.75 -1.74419,7.025 -2.1123,9.5 -0.3681,2.475 -3.03596,9.47224 -5.92858,15.54942 -4.60516,9.67513 -6.40978,12.25286 -14.50924,20.72503 -11.7993,12.34229 -25.01478,20.9893 -40.0612,26.21241 -15.88778,5.51517 -20.28266,6.51097 -35.5,8.04365 -14.02904,1.41299 -16.41941,1.49857 -22,0.78765 z"
       id="path77" />
    <path
       style="fill:#f9f9f9"
       d="m 313.02139,990.55963 c -1.13992,-2.6125 -2.44839,-5.875 -2.9077,-7.25 -0.84065,-2.51659 -2.24135,-6.28449 -5.76206,-15.5 -5.97088,-15.62888 -16.70887,-43.63192 -18.21425,-47.5 -0.96322,-2.475 -3.66105,-9.45 -5.99517,-15.5 -2.33412,-6.05 -5.11438,-13.25 -6.17835,-16 -2.37776,-6.14574 -7.13092,-18.80583 -10.32471,-27.5 -1.31327,-3.575 -3.34089,-8.975 -4.50584,-12 -1.16494,-3.025 -2.50065,-6.625 -2.96825,-8 -0.4676,-1.375 -1.81441,-4.975 -2.99293,-8 -1.17851,-3.025 -3.50136,-9.1 -5.16188,-13.5 -6.10656,-16.18097 -7.57298,-20.03239 -8.1861,-21.5 -0.34466,-0.825 -4.91185,-12.975 -10.1493,-27 -5.23746,-14.025 -9.95757,-26.4 -10.48915,-27.5 -0.53157,-1.1 -1.59738,-3.8 -2.36845,-6 -2.85493,-8.14558 -17.75415,-47.1075 -19.17803,-50.15113 -0.81079,-1.73312 -1.47416,-3.79562 -1.47416,-4.58333 0,-0.78771 -0.3084,-1.74061 -0.68534,-2.11754 -0.37693,-0.37694 -1.21028,-2.13944 -1.85189,-3.91667 -3.14665,-8.71617 -30.10881,-80.34351 -33.13437,-88.02434 -1.90501,-4.83615 -3.54572,-10.01115 -3.64602,-11.5 -0.1763,-2.61672 -0.0249,-2.699 4.54034,-2.46726 2.59749,0.13185 9.57249,1.61378 15.5,3.29318 5.9275,1.6794 13.47728,3.73507 16.77728,4.56815 3.3,0.83309 8.25,2.14883 11,2.92386 2.75,0.77504 7.25,1.87759 10,2.45012 2.75,0.57253 7.25,1.66963 10,2.438 19.70691,5.50628 48.00035,12.03469 65.5,15.11343 53.58706,9.42767 90.96042,13.3398 129,13.50332 7.425,0.0319 16.875,0.47728 21,0.98968 13.81365,1.71593 84.11643,-3.72968 108.5,-8.40434 53.13335,-10.18639 95.72244,-24.31987 133.2087,-44.20622 46.46925,-24.6518 79.54527,-56.9717 98.898,-96.63717 1.95133,-3.99946 3.94824,-8.02936 4.43759,-8.95533 1.76733,-3.34429 5.13019,-14.33474 7.10858,-23.23218 1.50349,-6.76169 2.14987,-14.19757 2.52822,-29.08423 0.56615,-22.27618 -0.7021,-35.48998 -5.20742,-54.25578 -3.21428,-13.38829 -4.68159,-18.132 -9.97367,-32.24422 -0.825,-2.2 -2.175,-5.8 -3,-8 -0.825,-2.2 -2.11539,-5.6875 -2.86753,-7.75 -0.75214,-2.0625 -2.71678,-7.35 -4.36588,-11.75 -4.20731,-11.22566 -5.09352,-14.8689 -5.85603,-24.07445 -1.02336,-12.35457 0.87197,-14.39985 9.71801,-10.48683 8.53608,3.77592 53.11352,52.95106 73.02908,80.56128 17.20995,23.85925 35.79048,57.65268 43.98616,80 6.41281,17.48594 11.70505,34.12281 12.88318,40.5 0.45723,2.475 1.29451,6.31917 1.86061,8.54261 0.56611,2.22344 1.52021,7.39844 2.12024,11.5 0.60002,4.10156 1.51602,10.38239 2.03554,13.95739 2.25609,15.52476 2.7106,27.83444 1.93848,52.5 -0.5962,19.04583 -1.20596,26.93614 -2.27975,29.5 -0.80623,1.925 -1.94456,7.63754 -2.52963,12.69454 -0.58507,5.057 -1.80034,10.61892 -2.7006,12.35983 -1.81768,3.51501 -8.47188,23.13672 -8.47188,24.98164 0,1.01038 -6.88789,18.12742 -11.6551,28.96399 -4.38269,9.96252 -18.91731,37.90963 -24.96364,48 -21.08091,35.1807 -44.42112,63.38485 -79.36815,95.90793 -32.92342,30.63984 -65.89898,54.28054 -115.51311,82.81318 -9.45152,5.43549 -49.37568,25.80563 -52.5,26.7866 -1.375,0.43172 -6.6653,2.7441 -11.75622,5.13862 -5.09092,2.39452 -9.50366,4.35367 -9.80609,4.35367 -0.30243,0 -3.20993,1.31979 -6.46111,2.93288 -3.25119,1.61308 -11.66345,5.0182 -18.69392,7.56694 -7.03046,2.54874 -14.58266,5.32967 -16.78266,6.17986 -13.37391,5.16831 -25.77039,9.4939 -38,13.25958 -5.5,1.69354 -12.025,3.72306 -14.5,4.51005 -2.475,0.78698 -9.225,2.8451 -15,4.57359 -5.775,1.72849 -11.625,3.5422 -13,4.03047 -1.375,0.48827 -8.125,2.26737 -15,3.95356 -6.875,1.68619 -14.3,3.56621 -16.5,4.17782 -2.2,0.6116 -5.575,1.43905 -7.5,1.83878 -1.925,0.39973 -7.775,1.84895 -13,3.22049 -10.97833,2.88177 -25.23219,5.81689 -54.5,11.22252 -7.7,1.42215 -17.375,3.24206 -21.5,4.04424 -24.66403,4.79635 -23.47572,4.85365 -26.14367,-1.26078 z M 452.66506,602.77096 c -3.3,-0.75408 -9.15,-1.84842 -13,-2.43187 -6.65128,-1.00796 -19.61317,-3.42856 -35,-6.53615 -9.92096,-2.00368 -22.60149,-4.33294 -32.5,-5.96985 -14.65492,-2.42349 -21.33526,-3.58741 -26.5,-4.6171 -2.75,-0.54826 -9.43712,-1.63296 -14.86027,-2.41044 -5.42314,-0.77748 -11.27314,-1.84178 -13,-2.36512 -1.72685,-0.52333 -5.83973,-1.23136 -9.13973,-1.57339 -3.3,-0.34204 -7.35,-1.0324 -9,-1.53414 -1.65,-0.50174 -7.5,-1.63507 -13,-2.5185 -10.58113,-1.69959 -18.51772,-3.06381 -38,-6.53183 -6.6,-1.17486 -15.6,-2.73347 -20,-3.46357 -4.4,-0.7301 -10.025,-1.7991 -12.5,-2.37555 -2.475,-0.57645 -7.875,-1.52367 -12,-2.10493 -4.125,-0.58126 -12.225,-1.96826 -18,-3.08222 -5.775,-1.11396 -13.1762,-2.43603 -16.4471,-2.93793 -10.14531,-1.55675 -11.5153,-3.47177 -15.02952,-21.00874 -0.93681,-4.675 -2.30395,-11.2 -3.03808,-14.5 -0.73413,-3.3 -2.03661,-9.375 -2.8944,-13.5 -0.8578,-4.125 -2.21546,-10.65 -3.01703,-14.5 -0.80157,-3.85 -1.96703,-10.825 -2.58992,-15.5 -0.62289,-4.675 -1.75041,-12.55 -2.50561,-17.5 -2.41839,-15.85148 -3.39037,-24.72637 -3.99748,-36.5 -0.32614,-6.325 -0.95133,-16.675 -1.3893,-23 -1.71419,-24.75561 1.23839,-79.9019 5.53613,-103.40014 0.81479,-4.45492 1.89041,-10.57486 2.39028,-13.59986 0.49987,-3.025 2.08224,-9.775 3.51639,-15 1.43415,-5.225 2.94736,-11.075 3.3627,-13 1.55313,-7.19856 10.55025,-29.94113 16.80243,-42.47257 23.26822,-46.63722 50.34657,-79.26349 86.38837,-104.08794 6.67802,-4.59961 16.95434,-10.758973 29.01042,-17.388105 8.19072,-4.503734 42.85389,-17.079858 52.40172,-19.011838 2.2,-0.445165 6.55693,-1.503587 9.68207,-2.352049 3.12514,-0.848462 12.79189,-2.73812 21.48167,-4.19924 8.68978,-1.461119 16.22556,-2.919836 16.74617,-3.241593 0.52061,-0.321757 10.87886,-0.894396 23.01833,-1.272531 44.24253,-1.378121 88.07343,2.762357 133.07176,12.570599 6.6,1.438596 13.8,2.997914 16,3.465151 5.30894,1.127513 25.83209,6.666743 31.5,8.501896 2.475,0.801355 10.575,3.318246 18,5.593092 20.82116,6.379117 28.40431,9.098821 63,22.595018 3.575,1.39465 10.62262,4.50771 15.66137,6.91792 5.03876,2.4102 9.38383,4.38219 9.65572,4.38219 0.27189,0 5.37427,2.27611 11.33863,5.05802 5.96435,2.78192 12.64428,5.88619 14.84428,6.89839 2.2,1.0122 6.57126,3.03608 9.71391,4.49752 10.25084,4.76699 17.28522,15.60303 11.97413,18.44544 -2.88224,1.54252 -14.93356,4.10063 -19.3182,4.10063 -2.20333,0 -8.81291,-0.67029 -14.68795,-1.48954 -5.87504,-0.81925 -18.33189,-2.40527 -27.68189,-3.52449 -9.35,-1.11921 -22.4,-2.69959 -29,-3.51194 -29.44267,-3.6239 -72.96851,-4.76424 -96.5,-2.52822 -36.68835,3.48622 -65.53217,11.64711 -90.93714,25.72919 -19.20338,10.64451 -33.4483,25.93763 -44.47126,47.74366 -8.00592,15.83758 -10.57365,23.47556 -14.14689,42.08134 -3.51826,18.3195 -4.50233,55.93332 -2.05377,78.5 4.01264,36.98162 8.4348,60.49281 19.18492,102 4.34951,16.79386 15.44374,52.91869 18.01223,58.65113 0.77655,1.73312 1.41191,3.51047 1.41191,3.94966 0,1.04207 5.73801,16.75213 7.99855,21.89921 0.96622,2.2 2.96947,7.15 4.45166,11 1.48219,3.85 4.0587,10.375 5.72557,14.5 1.66687,4.125 3.62295,9.075 4.34683,11 0.72388,1.925 2.70243,6.95622 4.39677,11.18048 1.69434,4.22427 3.09469,8.27427 3.11189,9 0.0172,0.72574 1.13809,3.56952 2.49086,6.31952 2.7213,5.53203 3.08823,8.48964 1.27787,10.3 -1.6007,1.6007 -13.65144,1.4091 -21.3,-0.33867 z M 613.13749,491.98813 c -0.29016,-0.31183 -4.4507,-1.05448 -9.24564,-1.65032 -4.79494,-0.59584 -12.88254,-2.21744 -17.97243,-3.60354 -5.0899,-1.38611 -10.95707,-2.95438 -13.03815,-3.48505 -2.08109,-0.53067 -4.55609,-1.39545 -5.5,-1.92174 -0.94392,-0.5263 -6.09206,-2.77542 -11.44032,-4.99806 -8.43786,-3.50661 -16.58005,-7.63502 -21.77589,-11.04122 -0.825,-0.54084 -2.45792,-1.40038 -3.62871,-1.91009 -1.1708,-0.50972 -8.3708,-5.66905 -16,-11.46519 -14.20569,-10.79249 -31.21265,-27.66978 -38.83437,-38.53828 -12.35524,-17.61842 -19.20474,-30.03704 -21.54635,-39.06501 -0.49929,-1.925 -1.64992,-5.975 -2.55695,-9 -4.50852,-15.03618 -5.75197,-22.59724 -5.83812,-35.5 -0.11527,-17.26364 2.51227,-28.19384 11.05804,-46 9.33627,-19.45327 34.63868,-39.42661 59.34646,-46.84719 47.53792,-14.27724 111.44615,3.01751 159.5,43.16366 46.58323,38.91754 69.03539,88.58723 59.46887,131.55974 -3.37292,15.15105 -3.90947,16.76883 -8.77827,26.46765 -6.08652,12.12459 -19.36586,26.59802 -30.91769,33.69785 -4.2751,2.62751 -8.44791,5.32677 -9.27291,5.99835 -2.32211,1.89029 -24.32199,9.3042 -34.01769,11.46388 -8.36665,1.86364 -37.8815,3.88721 -39.00988,2.67456 z"
       id="path75" />
    <path
       style="fill:#f9f9f9"
       d="m 316.04175,994.05963 c -0.82806,-0.6875 -3.20751,-5.75 -5.28766,-11.25 -2.08015,-5.5 -5.27767,-13.825 -7.10559,-18.5 -1.82793,-4.675 -6.53795,-17.05 -10.46672,-27.5 -3.92877,-10.45 -8.64894,-22.825 -10.48927,-27.5 -1.84032,-4.675 -4.55187,-11.65 -6.02565,-15.5 -1.47379,-3.85 -3.25981,-8.35 -3.96895,-10 -0.70913,-1.65 -3.84407,-9.975 -6.96653,-18.5 -3.12245,-8.525 -6.32724,-16.97777 -7.12175,-18.78393 -0.79452,-1.80616 -1.44457,-3.76315 -1.44457,-4.34887 0,-0.58572 -0.63499,-2.48295 -1.41109,-4.21607 -1.51479,-3.38268 -5.52772,-13.63441 -7.88796,-20.15113 -0.79679,-2.2 -2.8824,-7.825 -4.63468,-12.5 -1.75228,-4.675 -4.44764,-11.875 -5.98969,-16 -6.24653,-16.70951 -15.39015,-40.79903 -17.27037,-45.5 -2.32498,-5.81295 -3.51184,-8.90382 -7.87183,-20.5 -1.75773,-4.675 -5.19659,-13.675 -7.64192,-20 -4.55274,-11.77597 -6.16509,-15.99367 -8.79246,-23 -0.825,-2.2 -2.175,-5.8 -3,-8 -0.825,-2.2 -2.22573,-5.9125 -3.11273,-8.25 -0.88701,-2.3375 -2.20538,-5.825 -2.92972,-7.75 -0.72434,-1.925 -2.77217,-7.325 -4.55074,-12 -1.77856,-4.675 -4.50115,-11.875 -6.05018,-16 -1.54904,-4.125 -4.85048,-12.77201 -7.33653,-19.21558 -2.48606,-6.44357 -4.5201,-12.31607 -4.5201,-13.05 0,-0.73393 -0.38202,-1.76192 -0.84894,-2.28442 -1.12204,-1.2556 -6.15106,-15.16047 -6.15106,-17.00721 0,-2.2035 5.438,-1.79685 15.05136,1.12552 8.47738,2.57705 15.56859,4.44934 26.11352,6.89474 3.11568,0.72253 6.11449,1.59157 6.66401,1.9312 0.54953,0.33963 4.07534,1.25179 7.83513,2.02702 3.75979,0.77524 10.21098,2.35815 14.33598,3.51757 11.61687,3.2652 18.85821,5.04792 26.76239,6.58853 3.99432,0.77854 8.04432,1.81918 9,2.31255 0.95569,0.49336 4.59208,1.2083 8.08087,1.58875 3.48879,0.38046 7.42141,1.10166 8.73915,1.60266 2.59288,0.98581 15.55937,3.35427 29.91759,5.46475 4.95,0.72759 11.25,1.81227 14,2.41041 2.75,0.59814 9.275,1.53165 14.5,2.07447 5.225,0.54282 15.125,1.65335 22,2.46784 6.875,0.81449 26.675,1.97537 44,2.57973 17.325,0.60435 35.775,1.44512 41,1.86836 5.225,0.42325 10.84703,0.39459 12.4934,-0.0637 1.64637,-0.45827 7.94637,-0.85393 14,-0.87923 18.17995,-0.076 60.08114,-4.47459 80.5066,-8.45119 4.675,-0.91017 10.525,-2.0273 13,-2.4825 22.81994,-4.19707 70.75546,-19.14627 91.50857,-28.53792 17.06049,-7.72058 21.4194,-9.86053 29.83291,-14.64609 28.809,-16.3864 54.01549,-36.3494 68.60827,-54.33629 12.28128,-15.13775 25.49833,-36.06042 29.69035,-47 0.63228,-1.65 2.11049,-5.475 3.28492,-8.5 5.67876,-14.62693 8.6064,-36.9244 7.74663,-59 -1.13565,-29.15909 -5.32906,-47.33208 -19.80158,-85.81406 -9.65581,-25.67447 -10.49729,-28.44177 -11.76362,-38.68594 -0.81129,-6.56304 -0.7259,-8.40415 0.47537,-10.25 1.78224,-2.73856 3.00949,-2.79073 8.58527,-0.36493 3.92631,1.70818 17.26928,14.50379 24.70138,23.68807 1.30267,1.60977 8.11552,9.22686 15.13968,16.92686 7.02416,7.7 14.28334,15.90396 16.13152,18.23103 1.84818,2.32706 5.27788,6.6098 7.62154,9.5172 8.17029,10.13551 25.14302,35.52311 30.58708,45.75177 1.02456,1.925 2.67679,4.85 3.67164,6.5 3.76657,6.24703 12.86278,25.36796 16.41234,34.5 2.03091,5.225 4.1045,10.4 4.60797,11.5 1.89841,4.14773 7.06322,21.43916 10.90226,36.5 0.63088,2.475 1.84565,9 2.6995,14.5 5.05707,32.57498 5.49552,39.3493 4.49818,69.5 -0.65297,19.74004 -1.25922,27.39282 -2.37656,30 -0.82499,1.925 -1.79007,6.79076 -2.14462,10.8128 -0.35455,4.02204 -1.36298,8.97204 -2.24096,11 -2.29114,5.29212 -7.25705,19.83299 -8.77254,25.6872 -0.7119,2.75 -2.09039,6.8 -3.06332,9 -0.97293,2.2 -2.77305,6.475 -4.00026,9.5 -6.04657,14.9044 -20.83872,44.91598 -27.35492,55.5 -1.69307,2.75 -4.53282,7.475 -6.31053,10.5 -1.77772,3.025 -5.25512,8.425 -7.72756,12 -2.47244,3.575 -6.04793,8.75 -7.94554,11.5 -1.8976,2.75 -4.66145,6.35 -6.14189,8 -1.48044,1.65 -3.3374,3.96504 -4.12659,5.14453 -10.48863,15.67593 -55.18342,60.04872 -77.93489,77.3734 -2.475,1.88465 -6.75,5.33319 -9.5,7.66342 -2.75,2.33023 -9.275,7.14589 -14.5,10.70147 -23.42862,15.94303 -31.78389,21.4985 -35.68439,23.72675 -2.30142,1.31474 -8.37642,4.93111 -13.5,8.03639 -11.54213,6.9954 -13.35147,7.97485 -51.31561,27.77857 -3.85,2.00833 -9.025,4.5015 -11.5,5.54039 -7.52646,3.15925 -13.25288,5.65036 -18.5,8.04785 -14.63732,6.68804 -18.72805,8.45189 -26.5,11.42635 -11.75294,4.49805 -14.21895,5.41055 -24.5,9.06577 -4.95,1.75988 -12.375,4.47492 -16.5,6.03344 -4.125,1.55852 -12.225,4.26099 -18,6.00549 -5.775,1.7445 -12.3,3.7545 -14.5,4.46665 -2.2,0.71215 -8.725,2.73806 -14.5,4.50203 -5.775,1.76396 -11.625,3.60914 -13,4.10039 -3.5796,1.27889 -13.8126,4.0038 -18.5,4.9263 -2.2,0.43297 -12.775,3.02224 -23.5,5.75394 -10.725,2.73171 -23.325,5.73036 -28,6.66369 -4.675,0.93332 -11.425,2.3004 -15,3.03794 -3.575,0.73755 -10.55,2.09072 -15.5,3.00705 -4.95,0.91633 -12.15,2.27776 -16,3.0254 -3.85,0.74765 -11.05,2.07676 -16,2.95359 -4.95,0.87682 -10.88677,2.02734 -13.19282,2.55671 -5.1559,1.18357 -4.63034,1.20707 -6.43049,-0.28751 z M 460.16506,603.26221 c -3.575,-0.43151 -8.75,-1.30444 -11.5,-1.93985 -2.75,-0.6354 -10.175,-2.05395 -16.5,-3.15233 -18.88007,-3.27864 -26.30692,-4.69465 -30,-5.71979 -1.925,-0.53436 -6.65,-1.28092 -10.5,-1.65904 -3.85,-0.37811 -7.7979,-1.11254 -8.7731,-1.63207 -0.97521,-0.51953 -5.67139,-1.38755 -10.43596,-1.92894 -4.76458,-0.54138 -9.14168,-1.38017 -9.7269,-1.86397 -0.58522,-0.4838 -4.88904,-1.19992 -9.56404,-1.59139 -4.675,-0.39146 -9.85231,-1.26228 -11.50513,-1.93514 -1.65282,-0.67286 -6.37782,-1.53328 -10.5,-1.91204 -4.12218,-0.37876 -10.41987,-1.33396 -13.99487,-2.12267 -8.69553,-1.91839 -16.56789,-3.3024 -28,-4.92258 -5.225,-0.74049 -10.20078,-1.63717 -11.05729,-1.9926 -1.5678,-0.65061 -11.38693,-2.38631 -28.94271,-5.11612 -5.225,-0.81245 -10.175,-1.74078 -11,-2.06295 -0.825,-0.32217 -5.325,-1.19371 -10,-1.93675 -4.675,-0.74304 -10.975,-1.79897 -14,-2.34651 -3.025,-0.54754 -8.425,-1.48252 -12,-2.07773 -29.87436,-4.97384 -39.23268,-6.94071 -41.11082,-8.6404 -2.36176,-2.13737 -3.31629,-5.22496 -6.46114,-20.89971 -1.43451,-7.15 -3.18102,-15.7 -3.88113,-19 -4.7541,-22.40876 -7.06683,-35.6139 -10.07047,-57.5 -0.86804,-6.325 -1.78365,-12.81028 -2.0347,-14.41173 -0.25104,-1.60146 -1.12718,-14.65947 -1.94699,-29.01782 -1.1884,-20.814 -1.28829,-31.87983 -0.49277,-54.58827 1.23031,-35.11968 2.01194,-42.53539 7.9032,-74.98218 0.44937,-2.475 2.46454,-10.78134 4.47814,-18.45852 11.46286,-43.70406 35.45832,-87.24491 67.24488,-122.01886 9.46009,-10.34918 14.0983,-14.47174 30.11402,-26.76611 15.46245,-11.869646 27.45188,-18.785022 50.25778,-28.988163 15.80292,-7.070072 44.64602,-15.357582 65.5,-18.820161 6.6,-1.095859 15.825,-2.657743 20.5,-3.470853 16.09638,-2.7996 64.78871,-2.083795 101.5,1.492109 24.90189,2.425596 74.32457,12.56655 100,20.518823 38.76336,12.00591 48.29711,15.28566 78.5,27.005145 9.31518,3.61453 25.61676,10.8638 41.5,18.45496 4.4,2.10291 12.275,5.73678 17.5,8.07526 11.18054,5.00392 15.18289,7.78452 18.56826,12.90016 4.00645,6.05415 2.94854,7.16242 -9.56826,10.02376 -6.67062,1.5249 -8.66114,1.57194 -18,0.42536 -5.775,-0.70903 -14.55,-1.76804 -19.5,-2.35337 -4.95,-0.58532 -12.15,-1.45257 -16,-1.92722 -3.85,-0.47465 -13.975,-1.61041 -22.5,-2.5239 -8.525,-0.91349 -17.975,-2.1092 -21,-2.65713 -8.98673,-1.6278 -59.77358,-2.32202 -75.5,-1.03204 -20.90802,1.71501 -38.40838,4.69997 -56,9.55167 -16.07605,4.43371 -40.87547,16.12788 -52.54717,24.77861 -20.41593,15.13172 -38.22309,44.88868 -44.90965,75.04709 -5.09738,22.99067 -6.04016,65.22852 -2.15876,96.7152 7.5125,60.94295 24.35548,123.20915 52.07877,192.52818 13.58435,33.96615 14.78952,37.09762 15.47042,40.19774 0.37532,1.7088 1.55629,4.82102 2.62439,6.91603 2.46648,4.83785 2.46913,8.03375 0.008,9.35105 -2.11822,1.13363 -2.57627,1.13317 -12.06574,-0.0122 z m 149.9319,-112.31164 c -0.31245,-0.33576 -4.11256,-1.10346 -8.44469,-1.706 -10.60389,-1.47487 -32.08916,-7.13689 -33.88093,-8.92866 -0.55345,-0.55345 -1.66036,-1.00628 -2.45979,-1.00628 -0.79943,0 -3.85943,-1.125 -6.8,-2.5 -2.94057,-1.375 -7.91707,-3.70289 -11.05888,-5.1731 -9.23796,-4.32288 -19.27147,-10.34856 -27.11329,-16.28303 -4.02913,-3.04913 -9.71428,-7.35321 -12.63367,-9.56462 -2.91939,-2.21142 -10.67209,-9.66714 -17.22822,-16.56827 -18.4429,-19.41343 -31.07758,-39.79246 -36.83385,-59.41098 -0.96826,-3.3 -2.15359,-7.125 -2.63408,-8.5 -0.48048,-1.375 -1.31589,-4.975 -1.85647,-8 -0.54057,-3.025 -1.41443,-7.525 -1.94189,-10 -1.74473,-8.18664 -1.23244,-24.45606 1.06615,-33.85908 3.89358,-15.92776 10.77921,-30.39786 19.26422,-40.48356 10.05478,-11.9516 32.29704,-26.45689 47.62349,-31.05765 17.83829,-5.35478 37.86963,-6.65568 57.62581,-3.74243 36.91878,5.44405 71.03126,20.80879 100.73573,45.37279 14.708,12.16272 18.63518,15.926 26.77188,25.65452 18.5118,22.13336 31.04913,46.65382 34.86084,68.18071 3.57119,20.1685 0.0815,44.86432 -8.97017,63.48048 -4.34694,8.94015 -6.07536,11.25141 -15.70431,21 -7.1559,7.24482 -13.5288,12.61969 -18.81978,15.87251 -8.33565,5.12464 -26.7659,12.11721 -39.67725,15.05383 -7.25726,1.65063 -40.75896,3.38511 -41.89085,2.16882 z"
       id="path73" />
    <path
       style="fill:#f9f9f9"
       d="m 316.42881,993.10409 c -1.48836,-1.82629 -4.89909,-10.20925 -13.74975,-33.79446 -4.2311,-11.275 -10.41144,-27.475 -13.73409,-36 -3.32265,-8.525 -8.48111,-21.8 -11.46325,-29.5 -2.98214,-7.7 -6.12408,-15.8 -6.9821,-18 -0.85802,-2.2 -2.1843,-5.6875 -2.94729,-7.75 -0.763,-2.0625 -2.03405,-5.4375 -2.82455,-7.5 -0.7905,-2.0625 -8.90223,-23.775 -18.02605,-48.25 -9.12382,-24.475 -17.02549,-45.4 -17.55927,-46.5 -0.53378,-1.1 -2.03954,-4.925 -3.34615,-8.5 -2.50426,-6.85192 -9.54476,-25.38403 -14.4365,-38 -3.07197,-7.92271 -27.3768,-72.07152 -32.2997,-85.25 -3.92965,-10.5196 -8.03641,-21.38157 -12.38231,-32.75 -5.57264,-14.57745 -8.51274,-22.86001 -8.51274,-23.98122 0,-2.24304 10.23315,-0.52023 21,3.53548 1.925,0.72512 5.62701,1.59805 8.22669,1.93984 2.59968,0.3418 4.95221,0.98635 5.22784,1.43233 0.27563,0.44597 2.42362,1.1174 4.77331,1.49205 2.34969,0.37464 6.29716,1.30718 8.77216,2.0723 2.475,0.76512 6.75,1.83328 9.5,2.37368 2.75,0.54039 7.475,1.67444 10.5,2.52009 3.025,0.84565 7.525,2.04136 10,2.65713 2.475,0.61577 5.85,1.58617 7.5,2.15645 1.65,0.57029 6.17714,1.57969 10.0603,2.24312 3.88317,0.66343 7.59773,1.53838 8.25458,1.94434 0.65686,0.40596 4.90472,1.36026 9.4397,2.12068 11.2929,1.89357 19.40162,3.40678 24.74542,4.61786 2.475,0.56091 9.05395,1.5997 14.61989,2.30843 5.56594,0.70872 10.67593,1.63223 11.35552,2.05224 1.15096,0.71133 6.61888,1.38349 40.52459,4.98159 17.43413,1.85013 74.43394,4.00507 98,3.705 23.49693,-0.29919 48.66862,-2.25749 71.5,-5.56253 88.20811,-12.76893 162.63687,-44.26253 209.40913,-88.60886 20.05849,-19.01812 39.42726,-48.17412 47.83068,-72 6.6852,-18.95427 9.22939,-48.30447 6.32792,-73 -0.93697,-7.975 -2.09955,-16.075 -2.58351,-18 -0.48395,-1.925 -1.59398,-6.65 -2.46673,-10.5 -2.11755,-9.34128 -5.16949,-19.67228 -7.97623,-27 -15.24288,-39.79545 -16.23045,-42.8625 -17.52852,-54.43736 -1.22245,-10.9006 0.79965,-13.20901 8.28692,-9.4603 3.39209,1.69835 20.70034,18.22349 20.70034,19.76376 0,1.05268 8.61041,10.78122 24.25673,27.4067 6.06555,6.44513 12.02398,13.2954 13.24096,15.22281 1.21698,1.92742 4.52385,6.20439 7.34861,9.50439 2.82476,3.3 5.13993,6.36785 5.14481,6.81745 0.005,0.44959 1.92139,3.22111 4.25889,6.15893 2.3375,2.93782 5.6,7.67488 7.25,10.52681 1.65,2.85193 4.4625,7.38206 6.25,10.06696 1.7875,2.6849 3.25,5.07425 3.25,5.30968 0,0.23542 1.6456,3.28377 3.65689,6.7741 6.8721,11.92566 20.34311,40.39308 20.34311,42.9898 0,0.5797 0.65908,2.47202 1.46462,4.20514 5.65754,12.17216 12.85046,40.1312 15.47487,60.15113 0.64889,4.95 1.71546,11.7 2.37016,15 0.77676,3.9153 1.17179,16.97629 1.13694,37.59098 -0.0453,26.79366 -0.30356,32.26053 -1.70064,36 -0.90597,2.42496 -2.15429,8.21939 -2.77404,12.87652 -0.61975,4.65712 -1.80181,10.05712 -2.6268,12 -2.60794,6.14179 -7.39893,20.31258 -8.8923,26.30166 -0.79119,3.17303 -2.56675,7.99557 -3.94567,10.71675 -1.37893,2.72118 -2.50714,5.35783 -2.50714,5.85923 0,3.51355 -26.54704,56.51465 -30.88151,61.65486 -0.92758,1.1 -2.75751,4.025 -4.06652,6.5 -1.30901,2.475 -3.6562,6.13976 -5.21599,8.1439 -1.55979,2.00415 -2.83598,4.05746 -2.83598,4.56291 0,0.50546 -1.35,2.21239 -3,3.79319 -1.65,1.5808 -3,3.48427 -3,4.22993 0,0.74566 -1.96579,3.47397 -4.36842,6.06291 -2.40262,2.58894 -5.06553,6.05716 -5.91757,7.70716 -0.85204,1.65 -3.38626,4.77883 -5.63159,6.95295 -2.24533,2.17412 -4.09637,4.42412 -4.11343,5 -0.0862,2.90974 -57.33231,58.18642 -66.94674,64.64354 -2.32449,1.56115 -6.99293,5.2514 -10.3743,8.20055 -3.38137,2.94915 -9.97295,7.87066 -14.64795,10.93669 -4.675,3.06602 -10.17361,6.85522 -12.21913,8.42043 -3.28786,2.51584 -9.82777,6.92274 -14.61139,9.84584 -0.90007,0.55 -3.45133,2.125 -5.66948,3.5 -2.21815,1.375 -4.92557,3.03443 -6.0165,3.68762 -1.09092,0.65319 -6.0335,3.65379 -10.9835,6.668 -12.45405,7.58366 -17.76985,10.5049 -34.7447,19.09357 -8.10958,4.10316 -16.65958,8.57272 -19,9.93236 -2.34041,1.35964 -6.2803,3.24194 -8.7553,4.1829 -2.475,0.94096 -7.80261,3.2239 -11.83913,5.0732 -4.03653,1.84929 -7.49117,3.36235 -7.67697,3.36235 -0.18581,0 -3.8582,1.63273 -8.16087,3.62829 -13.35227,6.19274 -16.48458,7.48127 -27.82303,11.44553 -6.05,2.11527 -16.625,5.92215 -23.5,8.45976 -12.35557,4.56051 -23.56482,8.26014 -44,14.52228 -5.775,1.76969 -12.975,4.02024 -16,5.00123 -6.31674,2.04847 -22.30107,6.48434 -26,7.21535 -1.375,0.27174 -12.34309,3.02237 -24.37353,6.11251 -18.87713,4.84878 -45.57638,10.48841 -64.62647,13.65091 -3.025,0.50218 -7.525,1.35053 -10,1.88523 -2.475,0.53469 -9.675,1.92343 -16,3.08608 -6.325,1.16265 -12.6658,2.33168 -14.09066,2.59783 -1.46243,0.27317 -3.05008,-0.0798 -3.64559,-0.81054 z M 456.66506,601.8251 c -15.90705,-2.64872 -32.01161,-5.57485 -35.46925,-6.4446 -1.94191,-0.48848 -5.78075,-1.17426 -8.53075,-1.52396 -2.75,-0.3497 -6.125,-1.06655 -7.5,-1.59299 -1.375,-0.52644 -7,-1.58754 -12.5,-2.35801 -5.5,-0.77046 -11.8,-1.884 -14,-2.47452 -2.2,-0.59052 -5.8,-1.08718 -8,-1.10369 -2.2,-0.0165 -5.17656,-0.64395 -6.61459,-1.3943 -1.43802,-0.75036 -6.61302,-1.69596 -11.5,-2.10134 -4.88697,-0.40538 -10.01041,-1.30122 -11.38541,-1.99075 -1.375,-0.68954 -6.47777,-1.54689 -11.3395,-1.90522 -4.86172,-0.35833 -9.67848,-1.10053 -10.7039,-1.64932 -1.02543,-0.54879 -4.69765,-1.25569 -8.1605,-1.57089 -3.46286,-0.3152 -7.6461,-1.04224 -9.2961,-1.61566 -1.65,-0.57341 -7.275,-1.62973 -12.5,-2.34739 -5.225,-0.71765 -11.8625,-1.78587 -14.75,-2.37383 -2.8875,-0.58795 -7.6125,-1.54828 -10.5,-2.13407 -2.8875,-0.5858 -9.78535,-1.65368 -15.32856,-2.37307 -5.54321,-0.7194 -10.94321,-1.76007 -12,-2.3126 -1.05679,-0.55254 -5.40594,-1.32277 -9.66477,-1.71163 -4.25883,-0.38886 -7.97433,-1.08079 -8.25667,-1.53763 -0.28234,-0.45684 -3.99784,-1.13125 -8.25667,-1.4987 -4.25883,-0.36745 -9.31833,-1.12345 -11.24333,-1.68001 -1.925,-0.55655 -7.325,-1.61899 -12,-2.36096 -24.3819,-3.86969 -27.14022,-4.82178 -28.30546,-9.77017 -0.28365,-1.20459 -1.64127,-7.59016 -3.01693,-14.19016 -1.37566,-6.6 -3.45093,-16.5 -4.61172,-22 -3.96077,-18.76687 -5.86013,-28.99546 -7.05625,-38 -0.65753,-4.95 -1.82031,-12.6 -2.58394,-17 -5.09989,-29.38523 -6.43508,-90.22925 -2.87471,-131 4.17207,-47.77562 15.60261,-87.89951 34.61307,-121.5 0.46677,-0.825 1.1438,-2.175 1.50451,-3 0.69154,-1.58164 10.77221,-18.62215 13.33143,-22.53563 9.23045,-14.11492 14.64916,-21.32003 22.53513,-29.96437 3.51224,-3.85 8.90852,-9.772 11.99174,-13.15999 3.08323,-3.388 7.4885,-7.43552 9.7895,-8.9945 2.30099,-1.55898 7.23268,-5.42449 10.95931,-8.59001 3.72662,-3.16553 7.25021,-5.7555 7.8302,-5.7555 0.57999,0 2.93094,-1.62344 5.22432,-3.60765 7.14487,-6.181643 34.03855,-20.045999 50.6698,-26.121531 14.90235,-5.44395 40.70386,-12.555833 50,-13.781912 2.475,-0.32643 6.525,-1.004605 9,-1.507055 2.475,-0.50245 9.25929,-1.625557 15.07619,-2.495794 20.94315,-3.133197 92.05521,-1.513865 113.42381,2.582836 2.75,0.527219 7.925,1.352625 11.5,1.834236 15.69479,2.114347 52.31992,10.163246 69,15.163742 5.775,1.731278 13.425,3.948321 17,4.926761 13.3997,3.667356 54.88162,17.859547 60.12236,20.569637 1.55329,0.80324 6.09869,2.61406 10.1009,4.02404 7.68582,2.70773 24.57478,10.25487 41.34647,18.47645 5.53836,2.71493 10.48836,4.94011 11,4.94485 0.51165,0.005 4.53027,1.74463 8.93027,3.86643 5.50062,2.65255 9.48401,5.44828 12.75,8.94855 2.6125,2.7999 4.75,5.50491 4.75,6.01112 0,1.85403 -3.0471,3.34737 -10.57873,5.18449 -7.21126,1.75898 -8.45007,1.78569 -19.31339,0.41639 -6.38433,-0.80474 -19.25788,-2.35247 -28.60788,-3.43941 -9.35,-1.08694 -18.125,-2.21232 -19.5,-2.50084 -1.375,-0.28852 -9.475,-1.22721 -18,-2.08597 -8.525,-0.85877 -16.85,-1.75611 -18.5,-1.99409 -8.45482,-1.21942 -55.25128,-1.58758 -68,-0.53497 -30.78829,2.54207 -56.89291,8.22751 -76.69767,16.7043 -36.19861,15.49365 -51.03277,29.02199 -67.36854,61.43824 -9.24782,18.3511 -14.66763,43.14286 -15.95379,72.97715 -1.23678,28.68885 3.85284,76.96146 11.54513,109.5 0.52009,2.2 1.86241,8.05 2.98293,13 3.83268,16.93124 6.71581,28.39144 8.931,35.5 0.42848,1.375 1.57061,5.2 2.53806,8.5 0.96746,3.3 2.1224,7.125 2.56654,8.5 0.44415,1.375 1.78921,5.875 2.98904,10 1.19983,4.125 3.29298,10.65 4.65144,14.5 1.35846,3.85 2.84028,8.35 3.29293,10 0.45265,1.65 1.99298,5.80356 3.42296,9.23013 1.42998,3.42657 2.59997,7.04907 2.59997,8.05 0,1.00093 0.41593,2.24737 0.92429,2.76987 1.01639,1.04466 9.78928,22.06476 13.6204,32.63487 1.33261,3.67668 3.4646,9.07668 4.73776,12 1.27315,2.92332 3.15828,8.24013 4.18917,11.81513 1.03088,3.575 2.5455,7.29221 3.36582,8.26047 0.82032,0.96826 1.52998,3.66826 1.57702,6 l 0.0855,4.23953 -4,0.17378 c -2.2,0.0956 -7.6,-0.42566 -12,-1.15831 z m 158.5,-111.46666 c -10.13787,-1.15746 -22.20238,-3.07721 -25.5,-4.05767 -1.65,-0.49058 -6.375,-1.83941 -10.5,-2.9974 -4.125,-1.158 -8.77397,-2.75531 -10.33104,-3.54959 -1.55707,-0.79428 -3.40911,-1.44415 -4.11564,-1.44415 -0.70653,0 -4.38257,-1.5149 -8.16896,-3.36644 -3.7864,-1.85155 -8.90936,-4.35351 -11.38436,-5.55993 -8.22308,-4.00826 -17.82472,-9.5468 -20.17744,-11.63901 -1.27741,-1.13596 -3.67256,-2.89071 -5.32256,-3.89944 -8.45314,-5.16785 -37.25359,-33.29415 -43.28907,-42.27578 -2.04101,-3.0373 -5.43682,-8.0507 -7.54624,-11.14089 -8.35391,-12.23799 -12.6951,-23.40085 -19.68535,-50.61851 -0.70628,-2.75 -1.48291,-11.075 -1.72585,-18.5 -0.39798,-12.16372 -0.18078,-14.52417 2.1944,-23.84691 3.94624,-15.48926 11.28107,-29.80899 19.93544,-38.91979 23.89394,-25.15411 52.95664,-36.61806 88.52708,-34.92002 18.10819,0.86444 38.86596,5.33139 55.04515,11.84541 4.14944,1.67064 9.33839,3.70283 11.531,4.516 9.94986,3.69005 41.26414,22.99623 46.01344,28.36864 1.1,1.24432 4.7,4.26233 8,6.70669 6.22965,4.6144 22.95088,22.00603 27.11258,28.19961 4.24904,6.32357 9.2567,13.48987 11.22342,16.0615 2.53753,3.31798 11.28875,22.78313 13.93211,30.98887 7.96654,24.73046 5.82233,53.35508 -5.73047,76.5 -4.28552,8.58561 -6.44453,11.48732 -15.26458,20.51562 -5.65018,5.78359 -11.84806,11.40385 -13.77306,12.48947 -1.925,1.08562 -5.075,2.99066 -7,4.23343 -16.3436,10.55135 -53.2305,18.68157 -74,16.31029 z"
       id="path71" />
    <path
       style="fill:#f9f9f9"
       d="m 315.57846,988.55963 c -0.88739,-2.0625 -3.31462,-8.25 -5.39383,-13.75 -2.07921,-5.5 -4.26304,-11.125 -4.85295,-12.5 -0.58991,-1.375 -2.71049,-7 -4.7124,-12.5 -2.00192,-5.5 -4.91305,-13.15 -6.4692,-17 -1.55614,-3.85 -4.72682,-11.95 -7.04595,-18 -2.31913,-6.05 -6.3653,-16.4 -8.99149,-23 -2.62619,-6.6 -6.62774,-17.175 -8.89234,-23.5 -2.2646,-6.325 -5.45709,-14.875 -7.09443,-19 -1.63734,-4.125 -2.97334,-8.02055 -2.9689,-8.65678 0.004,-0.63623 -1.26537,-4.01123 -2.82182,-7.5 -1.55645,-3.48877 -4.98433,-12.19322 -7.61751,-19.34322 -2.63319,-7.15 -6.15829,-16.6 -7.83357,-21 -1.67527,-4.4 -4.38522,-11.6 -6.0221,-16 -1.63687,-4.4 -3.99178,-10.475 -5.23312,-13.5 -1.24134,-3.025 -2.56168,-6.625 -2.9341,-8 -0.37242,-1.375 -1.95787,-5.65 -3.52321,-9.5 -3.23697,-7.96142 -9.28349,-23.53649 -14.55815,-37.5 -1.97373,-5.225 -4.87583,-12.875 -6.44911,-17 -2.68238,-7.03292 -4.43492,-11.68207 -12.153,-32.23953 -1.70572,-4.54326 -4.46747,-11.86047 -6.13723,-16.26047 -1.66976,-4.4 -4.29721,-11.375 -5.83878,-15.5 -3.29351,-8.81293 -9.38493,-24.79018 -14.34437,-37.62398 -1.93921,-5.0182 -3.52584,-9.8557 -3.52584,-10.75 0,-2.06088 4.49155,-2.13163 8,-0.12602 1.375,0.78602 3.86237,1.44508 5.52749,1.46456 1.66513,0.0195 3.91513,0.64845 5,1.39768 1.08488,0.74924 4.20645,1.69127 6.93683,2.09342 2.73038,0.40214 5.86801,1.36413 6.97251,2.13775 1.1045,0.77363 3.72389,1.40659 5.82086,1.40659 2.09697,0 4.80934,0.62191 6.02749,1.38201 1.21815,0.76011 4.74561,1.65738 7.8388,1.99393 3.09319,0.33655 6.91819,1.28687 8.5,2.11182 1.58181,0.82496 4.45102,1.517 6.37602,1.53788 1.925,0.0209 4.37351,0.69866 5.44113,1.50616 1.06762,0.80751 3.18846,1.4682 4.71298,1.4682 1.52452,0 5.05517,0.9 7.84589,2 2.79072,1.1 6.98225,2 9.31451,2 2.33226,0 5.12811,0.61568 6.21298,1.36817 1.08488,0.7525 5.56535,1.70076 9.95659,2.10726 4.39125,0.40649 8.87888,1.36582 9.97251,2.13183 1.09363,0.766 4.47579,1.41249 7.51592,1.43663 3.04012,0.0241 7.32749,0.70807 9.52749,1.51984 2.2,0.81176 7.825,1.75434 12.5,2.0946 4.675,0.34027 9.62809,1.18633 11.00688,1.88013 1.37878,0.6938 7.67878,1.56825 14,1.94322 6.32121,0.37497 12.84312,1.2742 14.49312,1.99828 3.02624,1.32804 44.52182,3.46264 70,3.60092 6.6,0.0358 14.475,0.53764 17.5,1.11515 6.2488,1.19298 11.58212,1.18267 39,-0.0754 24.72104,-1.13435 44.8389,-2.87682 47.79705,-4.13984 1.26338,-0.53941 5.53838,-0.9967 9.5,-1.01619 4.34924,-0.0214 8.19342,-0.60163 9.70295,-1.46456 1.375,-0.78602 4.975,-1.46102 8,-1.5 3.025,-0.039 6.625,-0.71398 8,-1.5 1.375,-0.78602 4.21708,-1.44508 6.31574,-1.46456 2.09866,-0.0195 4.62782,-0.47005 5.62035,-1.00124 0.99253,-0.53118 4.22545,-1.41424 7.18426,-1.96234 6.55784,-1.2148 16.32009,-3.5432 20.37965,-4.86077 1.65,-0.53552 5.475,-1.70818 8.5,-2.60591 36.18749,-10.73939 80.28273,-30.04644 94.45082,-41.35518 1.55039,-1.2375 3.25595,-2.25 3.79013,-2.25 0.53418,0 2.67576,-1.35 4.75905,-3 2.08329,-1.65 4.21554,-3 4.73831,-3 0.52278,0 3.56636,-2.28907 6.76351,-5.08682 3.19715,-2.79776 7.42967,-6.11345 9.40559,-7.36822 4.98137,-3.1633 21.88145,-19.2495 23.56584,-22.43095 0.76118,-1.4377 2.80458,-4.14642 4.54089,-6.01937 3.09252,-3.33589 6.45839,-8.02115 10.51952,-14.64306 1.11852,-1.8238 2.79307,-4.15513 3.72123,-5.18074 0.92816,-1.0256 2.84883,-4.04878 4.26816,-6.71816 1.41932,-2.66938 3.67307,-6.81025 5.00833,-9.20192 1.33525,-2.39167 3.82867,-8.0615 5.54092,-12.59963 1.71226,-4.53812 3.52815,-9.04325 4.03533,-10.0114 0.50718,-0.96814 1.40229,-5.24314 1.98915,-9.5 0.58685,-4.25685 1.70583,-10.24665 2.48661,-13.31066 1.71603,-6.73423 2.02611,-35.82129 0.46708,-43.81556 -0.57776,-2.96261 -1.05047,-7.64806 -1.05047,-10.41215 0,-2.76409 -0.63919,-7.31517 -1.42043,-10.11351 -0.78123,-2.79834 -2.15735,-8.46289 -3.05803,-12.58789 -2.22086,-10.17124 -4.28476,-17.17689 -7.51245,-25.5 -1.49302,-3.85 -3.27195,-8.575 -3.95318,-10.5 -0.68123,-1.925 -2.59599,-7.1 -4.25503,-11.5 -7.04669,-18.68881 -8.80088,-24.69108 -8.80088,-30.11386 0,-3.03469 -0.43256,-6.32588 -0.96125,-7.31374 -0.66777,-1.24773 -0.54503,-2.36534 0.40199,-3.66046 1.32314,-1.80951 1.49113,-1.80013 5.71125,0.31907 4.76936,2.395 19.28221,16.47767 20.55167,19.94248 0.81565,2.2262 3.68892,5.39618 25.02169,27.60556 6.75106,7.02848 12.27465,13.5704 12.27465,14.53759 0,0.9672 2.2853,3.99163 5.07846,6.72095 2.79315,2.72933 5.7686,6.31241 6.61211,7.96241 0.84351,1.65 3.2832,5.10573 5.42154,7.67941 2.13834,2.57367 3.88789,5.09929 3.88789,5.61249 0,0.5132 1.33221,2.60946 2.96047,4.65835 1.62825,2.0489 3.25497,4.69827 3.61493,5.88751 0.35996,1.18923 1.53475,3.12531 2.61066,4.3024 2.30915,2.52632 6.94312,11.17175 17.34494,32.35984 8.57557,17.4681 8.72435,17.79959 10.77161,24 2.07912,6.29689 5.76614,17.11325 6.64706,19.5 1.96393,5.32106 3.93764,12.43828 4.57569,16.5 0.38879,2.475 1.07199,5.19691 1.51821,6.04868 3.10029,5.91802 7.2481,49.94781 6.96656,73.95132 -0.32659,27.84401 -2.61732,46.71788 -7.10251,58.51933 -1.04919,2.76063 -1.90762,5.61762 -1.90762,6.34887 0,0.73125 -0.60781,2.74755 -1.35069,4.48067 -3.73255,8.70799 -5.64931,14.45535 -5.64931,16.93935 0,1.51227 -1.28791,5.16307 -2.86203,8.1129 -1.57412,2.94983 -3.17962,6.62868 -3.56778,8.17523 -1.76403,7.02847 -24.74466,53.0304 -29.80802,59.66882 -1.49253,1.95681 -3.87355,5.73966 -5.29114,8.40633 -1.4176,2.66668 -3.6785,5.99812 -5.02424,7.40322 -1.34573,1.40509 -2.44679,3.05002 -2.44679,3.65539 0,0.60536 -1.575,2.98582 -3.5,5.28989 -1.925,2.30407 -3.5,4.66567 -3.5,5.24799 0,0.58232 -2.25,3.43781 -5,6.34553 -2.75,2.90772 -5,5.89737 -5,6.64367 0,0.7463 -1.83709,3.13574 -4.08242,5.30986 -2.24533,2.17412 -4.6804,5.07795 -5.41125,6.45295 -2.48495,4.67508 -61.1486,61.20534 -66.31668,63.90499 -1.47931,0.77274 -6.46573,4.71024 -11.08093,8.75 -4.61521,4.03975 -8.89021,7.3633 -9.5,7.38565 -0.6098,0.0223 -2.66672,1.37235 -4.57095,3 -1.90422,1.62765 -4.0267,2.95936 -4.71662,2.95936 -0.68991,0 -3.53443,2.025 -6.32115,4.5 -2.78672,2.475 -5.49784,4.5 -6.02473,4.5 -0.52688,0 -3.02133,1.575 -5.54321,3.5 -2.52189,1.925 -5.17068,3.5 -5.88621,3.5 -0.71553,0 -1.91856,0.74813 -2.67341,1.66252 -0.75484,0.91438 -3.20042,2.47305 -5.43461,3.4637 -2.23419,0.99066 -4.89143,2.71753 -5.90499,3.83749 -1.01355,1.11996 -2.36064,2.03629 -2.99355,2.03629 -0.6329,0 -2.70066,1.15578 -4.59501,2.5684 -1.89435,1.41262 -6.26035,3.93637 -9.70222,5.60833 -3.44186,1.67196 -6.52263,3.46822 -6.84615,3.99169 -0.69267,1.12076 -30.49555,15.83158 -32.07345,15.83158 -0.59267,0 -1.69517,0.74626 -2.45002,1.65836 -1.55776,1.88229 -12.60205,7.33965 -14.85598,7.34085 -0.81595,4.3e-4 -4.19095,1.30141 -7.5,2.89106 -3.30905,1.58964 -8.04146,3.80658 -10.51646,4.92653 -2.475,1.11995 -8.775,4.00866 -14,6.41937 -5.225,2.4107 -13.55,5.66482 -18.5,7.23138 -4.95,1.56655 -11.25,3.8485 -14,5.07098 -2.75,1.22249 -6.125,2.54153 -7.5,2.9312 -1.375,0.38967 -5.875,1.99871 -10,3.57563 -7.02038,2.68378 -18.50375,6.37306 -32.5,10.44134 -3.3,0.95921 -9.15,2.77344 -13,4.03162 -12.93115,4.2259 -24.29662,7.54305 -30.67116,8.95174 -3.48086,0.76923 -13.52884,3.2648 -22.32884,5.54571 -21.19612,5.49392 -29.36809,7.36028 -45.5,10.39153 -7.425,1.39518 -24.10893,4.5743 -37.0754,7.0647 -12.96648,2.4904 -24.77294,4.528 -26.23658,4.528 -2.12164,0 -2.9883,-0.76029 -4.27462,-3.75 z M 455.66506,600.1686 c -6.05,-1.0607 -15.5,-2.57507 -21,-3.36526 -5.5,-0.7902 -10.77442,-1.89518 -11.72092,-2.45553 -0.94651,-0.56035 -4.99651,-1.30127 -9,-1.6465 -4.0035,-0.34522 -8.17908,-1.18054 -9.27908,-1.85625 -1.1,-0.67571 -6.2292,-1.54382 -11.39823,-1.92912 -5.53395,-0.4125 -10.25111,-1.29793 -11.47251,-2.15343 -1.30175,-0.91178 -4.51556,-1.45288 -8.62926,-1.45288 -4.21929,0 -7.32099,-0.53653 -8.70473,-1.50574 -1.32089,-0.92518 -5.74425,-1.75663 -11.47251,-2.15645 -5.12752,-0.35789 -10.22276,-1.20701 -11.32276,-1.88693 -1.1,-0.67991 -6.25781,-1.55075 -11.46179,-1.93519 -5.4296,-0.4011 -10.31867,-1.29915 -11.47251,-2.10733 -1.23269,-0.86341 -4.54708,-1.40836 -8.5657,-1.40836 -4.01862,0 -7.33301,-0.54495 -8.5657,-1.40836 -1.15384,-0.80818 -6.04291,-1.70623 -11.47251,-2.10733 -5.20398,-0.38444 -10.36179,-1.2564 -11.46179,-1.93769 -1.1,-0.68129 -5.51454,-1.50033 -9.8101,-1.82009 -4.29555,-0.31977 -8.41428,-1.08282 -9.15274,-1.69569 -0.73845,-0.61286 -5.64568,-1.47736 -10.90494,-1.9211 -5.25926,-0.44375 -10.14052,-1.27096 -10.84725,-1.83826 -0.70674,-0.56729 -4.85932,-1.35698 -9.22797,-1.75487 -4.36865,-0.39788 -8.86865,-1.30239 -10,-2.01002 -1.13135,-0.70762 -6.21769,-1.50449 -11.30298,-1.77081 -5.0853,-0.26632 -9.88404,-1.01376 -10.66387,-1.66096 -0.77984,-0.64721 -4.71914,-1.44019 -8.75402,-1.76219 -4.03487,-0.322 -8.23613,-1.06396 -9.33613,-1.64882 -1.1,-0.58485 -4.82702,-1.36686 -8.28226,-1.7378 -3.54645,-0.38073 -7.06433,-1.38219 -8.07813,-2.29966 -1.84036,-1.66551 -3.21968,-6.44867 -5.65961,-19.62635 -0.76377,-4.125 -2.0859,-10.65 -2.93806,-14.5 -4.12876,-18.65346 -6.70016,-32.53864 -9.0743,-49 -1.42783,-9.9 -2.98621,-20.025 -3.46307,-22.5 -2.57591,-13.36942 -3.3268,-95.92757 -1.10963,-122 1.37737,-16.19695 6.0328,-42.42602 10.117,-57 1.15598,-4.125 2.71405,-9.75 3.46237,-12.5 1.3279,-4.87991 3.73407,-11.9843 5.41901,-16 0.46155,-1.1 1.86646,-4.7 3.12202,-8 1.25556,-3.3 2.80096,-6.675 3.43422,-7.5 0.63326,-0.825 3.05312,-5.325 5.37746,-10 2.32434,-4.675 4.66413,-9.2875 5.19953,-10.25 1.42608,-2.56371 2.55658,-4.66536 5.51355,-10.25 1.45607,-2.75 3.95522,-6.66111 5.55366,-8.69136 1.59843,-2.03025 2.90624,-3.99049 2.90624,-4.3561 0,-0.3656 1.28462,-2.30449 2.85471,-4.30864 1.5701,-2.00414 3.0326,-4.10427 3.25,-4.66694 1.03545,-2.67984 8.14782,-11.57885 15.14529,-18.94983 4.2625,-4.49002 7.75,-8.59704 7.75,-9.1267 0,-1.6015 11.13156,-11.88256 17,-15.70113 3.025,-1.96836 7.27883,-5.40594 9.45295,-7.63907 2.17412,-2.23313 4.67334,-4.06023 5.55383,-4.06023 0.88049,0 3.09348,-1.53997 4.91776,-3.42215 1.82428,-1.88218 6.30006,-4.87871 9.94617,-6.65895 3.64611,-1.78025 7.68981,-4.055322 8.98601,-5.05572 1.29619,-1.000398 4.69222,-2.923777 7.54673,-4.274175 17.14548,-8.111108 22.93747,-10.589001 24.75146,-10.589001 1.12008,0 3.23094,-0.634704 4.6908,-1.410453 4.86966,-2.587667 9.9386,-4.589547 11.62116,-4.589547 0.91554,0 2.59256,-0.496622 3.72672,-1.103605 1.13416,-0.606983 4.36707,-1.478567 7.18426,-1.936852 2.81718,-0.458286 7.59715,-1.588818 10.62215,-2.512294 3.025,-0.923476 8.51047,-2.046591 12.18992,-2.495812 3.67946,-0.44922 7.50446,-1.23529 8.5,-1.746822 0.99555,-0.511531 5.99612,-1.213596 11.11238,-1.560144 5.11627,-0.346548 10.27808,-1.152306 11.4707,-1.790575 4.16795,-2.230622 99.23839,0.745884 103.92723,3.253798 0.93512,0.50017 5.21012,1.16808 9.5,1.484246 4.28987,0.316166 9.14977,1.027809 10.79977,1.581428 1.65,0.55362 6.825,1.624671 11.5,2.380116 11.65973,1.884123 18.68518,3.348364 24,5.002075 2.475,0.770098 6.525,1.673407 9,2.007354 2.475,0.333946 6.19661,1.243906 8.27024,2.022131 2.07363,0.778226 4.70562,1.414956 5.84887,1.414956 1.14325,0 3.49664,0.600956 5.22976,1.335458 5.63113,2.386489 10.04649,3.831697 15.65113,5.122825 3.025,0.696863 6.625,1.716509 8,2.265882 4.55429,1.819638 9.43815,3.421027 14.5,4.754467 2.75,0.724431 6.575,1.886331 8.5,2.581999 1.925,0.695669 5.975,2.15881 9,3.251424 3.025,1.092611 6.91801,2.594381 8.65113,3.337251 1.73312,0.74288 3.65845,1.35069 4.27852,1.35069 0.62006,0 3.80172,1.35 7.07035,3 3.26863,1.65 6.5183,3.01527 7.22148,3.03393 0.70319,0.0187 3.07852,0.90339 5.27852,1.96607 2.2,1.06268 4.57094,1.94741 5.26876,1.96607 0.69782,0.0187 5.66611,2.28393 11.04064,5.03393 5.37452,2.75 10.31204,5 10.97224,5 0.66021,0 5.52732,2.25 10.8158,5 5.28847,2.75 10.19041,5 10.89319,5 0.70278,0 4.8713,1.79861 9.26337,3.99691 7.97234,3.99029 16.79581,11.85365 15.9954,14.25489 -0.21117,0.63351 -2.60367,1.84455 -5.31667,2.69122 -5.61559,1.75249 -27.94856,1.92165 -31.09904,0.23556 -1.02499,-0.54855 -9.05689,-1.54681 -17.84866,-2.21833 -8.79176,-0.67153 -16.73014,-1.60544 -17.64083,-2.07537 -0.91069,-0.46993 -8.33569,-1.33862 -16.5,-1.93042 -8.16431,-0.5918 -15.99971,-1.51928 -17.41199,-2.06108 -1.41229,-0.54179 -13.78729,-1.37176 -27.5,-1.84438 -25.02747,-0.86259 -57.22101,0.51409 -68.43221,2.92634 -2.475,0.53254 -7.65,1.39783 -11.5,1.92289 -11.64612,1.58827 -25.70091,4.9726 -29.73643,7.16039 -0.95504,0.51776 -2.44753,0.94138 -3.31666,0.94138 -1.67338,0 -21.91953,8.74286 -29.34585,12.67238 -2.41942,1.28019 -4.90215,2.32762 -5.51718,2.32762 -0.61503,0 -3.43311,2.025 -6.26241,4.5 -2.82929,2.475 -5.70784,4.5 -6.39676,4.5 -1.44227,0 -15.92471,14.52341 -15.92471,15.96976 0,0.52836 -1.2657,2.43881 -2.81266,4.24544 -1.54696,1.80664 -3.97387,5.3098 -5.39313,7.7848 -5.09306,8.88159 -11.79421,21.99962 -11.79421,23.0881 0,0.6103 -0.65083,2.52765 -1.44628,4.26077 -2.94843,6.42399 -5.80975,19.32589 -9.66209,43.56712 -2.08848,13.142 -0.14677,60.09793 3.55972,86.08401 1.35478,9.49826 2.15824,14.31671 5.56599,33.37965 0.57809,3.23381 1.48568,6.69173 2.01686,7.68426 0.53119,0.99253 0.98175,3.52169 1.00124,5.62035 0.0195,2.09866 0.67854,4.94074 1.46456,6.31574 0.78602,1.375 1.46102,4.3 1.5,6.5 0.039,2.2 0.71398,5.125 1.5,6.5 0.78602,1.375 1.46102,4.3 1.5,6.5 0.039,2.2 0.71398,5.125 1.5,6.5 0.78602,1.375 1.44508,3.46106 1.46456,4.63569 0.0195,1.17463 0.70767,3.42463 1.52928,5 0.82161,1.57537 1.49661,3.88292 1.5,5.12788 0.003,1.24496 0.42978,3.04496 0.94754,4 0.51776,0.95504 1.68337,4.43643 2.59024,7.73643 0.90688,3.3 2.24894,7.8 2.98235,10 0.73342,2.2 1.62743,5.45734 1.9867,7.23853 0.35926,1.7812 1.06858,3.49525 1.57627,3.80902 0.50768,0.31377 0.92583,1.78143 0.92922,3.26147 0.003,1.48004 0.63598,3.89817 1.40575,5.37362 0.76977,1.47545 1.69868,4.0444 2.06424,5.70878 0.36556,1.66438 1.75797,5.29249 3.09425,8.06246 1.33628,2.76997 2.4296,5.76543 2.4296,6.65656 0,0.89114 1.575,4.98346 3.5,9.09404 1.925,4.11058 3.5,8.0625 3.5,8.78203 0,0.71953 1.30862,3.94578 2.90804,7.16943 1.59942,3.22366 3.81673,8.55734 4.92736,11.85263 1.11063,3.29528 2.9987,8.24143 4.19572,10.99143 1.19702,2.75 3.05572,8.15 4.13046,12 1.07473,3.85 3.10513,8.67435 4.51199,10.72077 1.8324,2.66543 2.37787,4.43815 1.92312,6.25 -0.75683,3.01546 -1.0686,3.02298 -16.09669,0.3882 z M 609.21354,488.36075 c -0.79834,-0.50504 -4.84834,-1.22911 -9,-1.60906 -4.15166,-0.37995 -8.76363,-1.30984 -10.24882,-2.06644 -1.48519,-0.75659 -3.96019,-1.37839 -5.5,-1.38178 -1.53981,-0.003 -3.96653,-0.61506 -5.39269,-1.35926 -1.42617,-0.74421 -4.19346,-1.65334 -6.14952,-2.0203 -1.95607,-0.36696 -4.1068,-1.3303 -4.77941,-2.14074 -0.67261,-0.81045 -2.25383,-1.47354 -3.51381,-1.47354 -1.25999,0 -7.28673,-2.5875 -13.39277,-5.75 -6.10604,-3.1625 -13.77803,-7.11201 -17.04888,-8.7767 -3.27084,-1.66468 -7.20149,-4.20162 -8.73478,-5.63765 -1.53329,-1.43603 -3.73655,-2.89661 -4.89614,-3.24573 -1.15958,-0.34912 -3.99686,-2.64968 -6.30505,-5.11235 -2.3082,-2.46266 -4.80905,-4.47757 -5.55746,-4.47757 -1.91398,0 -28.47538,-27.8521 -30.05962,-31.5203 -0.71743,-1.66117 -2.2966,-3.91117 -3.50925,-5 -1.21266,-1.08884 -3.52212,-4.30561 -5.13213,-7.1484 -1.61002,-2.84278 -3.57999,-5.71038 -4.37772,-6.37244 -0.79774,-0.66206 -1.45043,-1.59148 -1.45043,-2.06537 0,-0.4739 -1.36973,-3.6813 -3.04384,-7.12756 -1.67411,-3.44626 -3.4427,-7.84093 -3.9302,-9.76593 -0.4875,-1.925 -1.63392,-5.975 -2.5476,-9 -5.62609,-18.62691 -7.49727,-35.96211 -5.25574,-48.69085 2.49339,-14.15896 4.10162,-19.1553 9.912,-30.79394 5.28084,-10.57791 5.92332,-11.38806 17.34591,-21.87257 6.52406,-5.98828 13.32911,-11.50081 15.12232,-12.25006 1.79322,-0.74925 3.54272,-1.8191 3.88779,-2.37743 0.34506,-0.55833 1.43109,-1.01515 2.41339,-1.01515 0.9823,0 2.56622,-0.86213 3.51982,-1.91585 2.95944,-3.27015 17.44554,-8.10353 30.38256,-10.13732 10.33052,-1.62404 38.14394,-1.33381 44.57106,0.46509 2.81739,0.78856 7.37253,1.89449 10.12253,2.45762 14.00918,2.86871 24.35626,6.1024 31.39894,9.81286 2.41942,1.27468 4.95551,2.3176 5.63576,2.3176 1.71106,0 18.51299,8.76588 20.9653,10.93798 1.1,0.97431 4.025,2.8429 6.5,4.15241 2.475,1.30952 5.97816,3.62489 7.7848,5.14527 1.80663,1.52039 3.76289,2.76434 4.34723,2.76434 0.58434,0 4.05618,2.867 7.7152,6.37111 3.65902,3.50411 7.9512,7.03611 9.53816,7.84888 3.24037,1.65958 23.61461,23.44878 23.61461,25.25461 0,0.63915 1.61687,2.93134 3.59305,5.09375 1.97617,2.16241 4.20017,5.31747 4.94222,7.01126 0.74205,1.69378 2.06518,3.67383 2.94029,4.4001 1.7638,1.46383 9.50384,17.30064 11.5028,23.53577 0.70258,2.19149 1.71802,5.10952 2.25653,6.48452 4.46242,11.39417 6.28062,30.59679 4.15818,43.91607 -0.82525,5.17883 -1.86877,10.12883 -2.31894,11 -0.45017,0.87116 -1.11701,3.64425 -1.48186,6.16241 -0.94751,6.53954 -8.89967,21.49595 -14.67719,27.60482 -2.70329,2.85834 -4.91508,5.63029 -4.91508,6.15989 0,1.41947 -9.6697,10.49211 -12.43784,11.66986 -1.30956,0.55718 -3.20928,1.76106 -4.22159,2.67529 -3.55733,3.21266 -17.94481,9.88767 -27.84057,12.91652 -5.5,1.68341 -11.125,3.44837 -12.5,3.92214 -6.95033,2.39478 -40.89451,3.95803 -43.95152,2.02412 z"
       id="path69" />
  </g>
</svg>
